<svg width="122" height="25" viewBox="0 0 122 25" fill="none" xmlns="http://www.w3.org/2000/svg">
<path d="M53.8864 19H52.4091L56.6818 7.36364H58.1364L62.4091 19H60.9318L57.4545 9.20455H57.3636L53.8864 19ZM54.4318 14.4545H60.3864V15.7045H54.4318V14.4545Z" fill="#20494F"/>
<path d="M64.5416 19V7.36364H65.8825V11.6591H65.9961C66.0946 11.5076 66.231 11.3144 66.4052 11.0795C66.5833 10.8409 66.837 10.6288 67.1666 10.4432C67.4999 10.2538 67.9507 10.1591 68.5189 10.1591C69.2537 10.1591 69.9014 10.3428 70.462 10.7102C71.0227 11.0777 71.4601 11.5985 71.7745 12.2727C72.0889 12.947 72.2461 13.7424 72.2461 14.6591C72.2461 15.5833 72.0889 16.3845 71.7745 17.0625C71.4601 17.7367 71.0245 18.2595 70.4677 18.6307C69.9109 18.9981 69.2689 19.1818 68.5416 19.1818C67.981 19.1818 67.5321 19.089 67.195 18.9034C66.8579 18.714 66.5984 18.5 66.4166 18.2614C66.2348 18.0189 66.0946 17.8182 65.9961 17.6591H65.837V19H64.5416ZM65.8598 14.6364C65.8598 15.2955 65.9564 15.8769 66.1495 16.3807C66.3427 16.8807 66.6249 17.2727 66.9961 17.5568C67.3674 17.8371 67.8219 17.9773 68.3598 17.9773C68.9204 17.9773 69.3882 17.8295 69.7632 17.5341C70.142 17.2348 70.4261 16.8333 70.6155 16.3295C70.8086 15.822 70.9052 15.2576 70.9052 14.6364C70.9052 14.0227 70.8105 13.4697 70.6211 12.9773C70.4355 12.4811 70.1533 12.089 69.7745 11.8011C69.3995 11.5095 68.928 11.3636 68.3598 11.3636C67.8143 11.3636 67.356 11.5019 66.9848 11.7784C66.6136 12.0511 66.3333 12.4337 66.1439 12.9261C65.9545 13.4148 65.8598 13.9848 65.8598 14.6364Z" fill="#20494F"/>
<path d="M78.1627 19.1818C77.3748 19.1818 76.6836 18.9943 76.0889 18.6193C75.498 18.2443 75.0358 17.7197 74.7025 17.0455C74.373 16.3712 74.2082 15.5833 74.2082 14.6818C74.2082 13.7727 74.373 12.9792 74.7025 12.3011C75.0358 11.6231 75.498 11.0966 76.0889 10.7216C76.6836 10.3466 77.3748 10.1591 78.1627 10.1591C78.9506 10.1591 79.64 10.3466 80.2309 10.7216C80.8256 11.0966 81.2877 11.6231 81.6173 12.3011C81.9506 12.9792 82.1173 13.7727 82.1173 14.6818C82.1173 15.5833 81.9506 16.3712 81.6173 17.0455C81.2877 17.7197 80.8256 18.2443 80.2309 18.6193C79.64 18.9943 78.9506 19.1818 78.1627 19.1818ZM78.1627 17.9773C78.7612 17.9773 79.2536 17.8239 79.64 17.517C80.0264 17.2102 80.3123 16.8068 80.498 16.3068C80.6836 15.8068 80.7764 15.2652 80.7764 14.6818C80.7764 14.0985 80.6836 13.5549 80.498 13.0511C80.3123 12.5473 80.0264 12.1402 79.64 11.8295C79.2536 11.5189 78.7612 11.3636 78.1627 11.3636C77.5642 11.3636 77.0718 11.5189 76.6855 11.8295C76.2991 12.1402 76.0131 12.5473 75.8275 13.0511C75.6419 13.5549 75.5491 14.0985 75.5491 14.6818C75.5491 15.2652 75.6419 15.8068 75.8275 16.3068C76.0131 16.8068 76.2991 17.2102 76.6855 17.517C77.0718 17.8239 77.5642 17.9773 78.1627 17.9773Z" fill="#20494F"/>
<path d="M89.9841 15.4318V10.2727H91.3251V19H89.9841V17.5227H89.8932C89.6887 17.9659 89.3705 18.3428 88.9387 18.6534C88.5069 18.9602 87.9614 19.1136 87.3023 19.1136C86.7569 19.1136 86.272 18.9943 85.8478 18.7557C85.4235 18.5133 85.0902 18.1496 84.8478 17.6648C84.6054 17.1761 84.4841 16.5606 84.4841 15.8182V10.2727H85.8251V15.7273C85.8251 16.3636 86.0031 16.8712 86.3591 17.25C86.719 17.6288 87.1773 17.8182 87.7341 17.8182C88.0675 17.8182 88.4065 17.733 88.7512 17.5625C89.0997 17.392 89.3913 17.1307 89.6262 16.7784C89.8648 16.4261 89.9841 15.9773 89.9841 15.4318Z" fill="#20494F"/>
<path d="M97.8965 10.2727V11.4091H93.3737V10.2727H97.8965ZM94.6919 8.18182H96.0328V16.5C96.0328 16.8788 96.0878 17.1629 96.1976 17.3523C96.3112 17.5379 96.4552 17.6629 96.6294 17.7273C96.8075 17.7879 96.995 17.8182 97.1919 17.8182C97.3397 17.8182 97.4609 17.8106 97.5556 17.7955C97.6503 17.7765 97.726 17.7614 97.7828 17.75L98.0556 18.9545C97.9647 18.9886 97.8378 19.0227 97.6749 19.0568C97.512 19.0947 97.3056 19.1136 97.0556 19.1136C96.6768 19.1136 96.3056 19.0322 95.9419 18.8693C95.5821 18.7064 95.2828 18.4583 95.0442 18.125C94.8094 17.7917 94.6919 17.3712 94.6919 16.8636V8.18182Z" fill="#20494F"/>
<path d="M110.554 15.4318V10.2727H111.894V19H110.554V17.5227H110.463C110.258 17.9659 109.94 18.3428 109.508 18.6534C109.076 18.9602 108.531 19.1136 107.872 19.1136C107.326 19.1136 106.841 18.9943 106.417 18.7557C105.993 18.5133 105.66 18.1496 105.417 17.6648C105.175 17.1761 105.054 16.5606 105.054 15.8182V10.2727H106.394V15.7273C106.394 16.3636 106.572 16.8712 106.929 17.25C107.288 17.6288 107.747 17.8182 108.304 17.8182C108.637 17.8182 108.976 17.733 109.321 17.5625C109.669 17.392 109.961 17.1307 110.196 16.7784C110.434 16.4261 110.554 15.9773 110.554 15.4318Z" fill="#20494F"/>
<path d="M120.852 12.2273L119.648 12.5682C119.572 12.3674 119.46 12.1723 119.312 11.983C119.169 11.7898 118.972 11.6307 118.722 11.5057C118.472 11.3807 118.151 11.3182 117.761 11.3182C117.227 11.3182 116.782 11.4413 116.426 11.6875C116.074 11.9299 115.898 12.2386 115.898 12.6136C115.898 12.947 116.019 13.2102 116.261 13.4034C116.504 13.5966 116.883 13.7576 117.398 13.8864L118.693 14.2045C119.473 14.3939 120.055 14.6837 120.437 15.0739C120.82 15.4602 121.011 15.9583 121.011 16.5682C121.011 17.0682 120.867 17.5152 120.579 17.9091C120.295 18.303 119.898 18.6136 119.386 18.8409C118.875 19.0682 118.28 19.1818 117.602 19.1818C116.712 19.1818 115.975 18.9886 115.392 18.6023C114.809 18.2159 114.439 17.6515 114.284 16.9091L115.557 16.5909C115.678 17.0606 115.907 17.4129 116.244 17.6477C116.585 17.8826 117.03 18 117.579 18C118.204 18 118.701 17.8674 119.068 17.6023C119.439 17.3333 119.625 17.0114 119.625 16.6364C119.625 16.3333 119.519 16.0795 119.307 15.875C119.095 15.6667 118.769 15.5114 118.329 15.4091L116.875 15.0682C116.076 14.8788 115.489 14.5852 115.114 14.1875C114.742 13.786 114.557 13.2841 114.557 12.6818C114.557 12.1894 114.695 11.7538 114.972 11.375C115.252 10.9962 115.633 10.6989 116.114 10.483C116.598 10.267 117.148 10.1591 117.761 10.1591C118.625 10.1591 119.303 10.3485 119.795 10.7273C120.292 11.1061 120.644 11.6061 120.852 12.2273Z" fill="#20494F"/>
<path d="M12.0166 18.75H13.0849V11.1111H12.0166V18.75ZM12.4994 9.23611C12.7081 9.23611 12.8846 9.16746 13.0289 9.03017C13.1731 8.89288 13.2452 8.7158 13.2452 8.49892C13.2452 8.28017 13.1733 8.09995 13.0294 7.95826C12.8856 7.81657 12.7094 7.74573 12.5006 7.74573C12.2741 7.74573 12.0931 7.81657 11.9578 7.95826C11.8225 8.09995 11.7548 8.28017 11.7548 8.49892C11.7548 8.7158 11.8267 8.89288 11.9706 9.03017C12.1144 9.16746 12.2906 9.23611 12.4994 9.23611ZM12.5139 25C10.7737 25 9.14993 24.672 7.64257 24.016C6.13519 23.36 4.81288 22.4639 3.67566 21.3277C2.53846 20.1916 1.64155 18.8697 0.984931 17.362C0.32831 15.8543 0 14.2294 0 12.4873C0 10.763 0.327998 9.14179 0.983993 7.62379C1.64001 6.10578 2.5361 4.78395 3.67226 3.6583C4.80841 2.53267 6.13032 1.64155 7.63799 0.984932C9.14567 0.328311 10.7706 0 12.5127 0C14.237 0 15.8582 0.327997 17.3762 0.983993C18.8942 1.64001 20.2161 2.53031 21.3417 3.6549C22.4673 4.77948 23.3584 6.1019 24.0151 7.62215C24.6717 9.14243 25 10.7638 25 12.4861C25 14.2263 24.672 15.8501 24.016 17.3574C23.36 18.8648 22.4697 20.185 21.3451 21.3179C20.2205 22.4509 18.8981 23.3478 17.3778 24.0087C15.8576 24.6696 14.2363 25 12.5139 25ZM12.5174 23.9316C15.686 23.9316 18.3805 22.8201 20.601 20.5969C22.8214 18.3738 23.9316 15.6691 23.9316 12.4826C23.9316 9.314 22.8236 6.61947 20.6075 4.39903C18.3914 2.17859 15.6889 1.06837 12.5 1.06837C9.32514 1.06837 6.62616 2.17642 4.40306 4.39254C2.17993 6.60862 1.06837 9.31111 1.06837 12.5C1.06837 15.6749 2.17993 18.3738 4.40306 20.5969C6.62616 22.8201 9.33093 23.9316 12.5174 23.9316Z" fill="#20494F"/>
</svg>
