<svg width="85" height="93" viewBox="0 0 85 93" fill="none" xmlns="http://www.w3.org/2000/svg">
<g id="Vector">
<path d="M0 7.59184C0 3.39898 3.38274 0 7.55556 0H77.4444C81.6173 0 85 3.39898 85 7.59184V85.4082C85 89.601 81.6173 93 77.4444 93H7.55555C3.38274 93 0 89.601 0 85.4082V7.59184Z" fill="#3E5E63"/>
<path d="M4.75937 74.946C4.75937 74.3867 4.88488 73.885 5.13589 73.4409C5.3869 72.9913 5.72795 72.6404 6.15904 72.3882C6.59558 72.1359 7.07851 72.0098 7.60781 72.0098C8.22989 72.0098 8.77284 72.1606 9.23667 72.4622C9.70049 72.7637 10.0388 73.1914 10.2516 73.7452H9.35944C9.2012 73.3998 8.97201 73.1339 8.67189 72.9474C8.37722 72.761 8.02253 72.6678 7.60781 72.6678C7.20947 72.6678 6.85205 72.761 6.53556 72.9474C6.21906 73.1339 5.97078 73.3998 5.7907 73.7452C5.61063 74.0852 5.52059 74.4854 5.52059 74.946C5.52059 75.4011 5.61063 75.8013 5.7907 76.1468C5.97078 76.4867 6.21906 76.7499 6.53556 76.9363C6.85205 77.1227 7.20947 77.2159 7.60781 77.2159C8.02253 77.2159 8.37722 77.1255 8.67189 76.9445C8.97201 76.7581 9.2012 76.4922 9.35944 76.1468H10.2516C10.0388 76.6951 9.70049 77.12 9.23667 77.4216C8.77284 77.7176 8.22989 77.8657 7.60781 77.8657C7.07851 77.8657 6.59558 77.7423 6.15904 77.4956C5.72795 77.2434 5.3869 76.8952 5.13589 76.4511C4.88488 76.0069 4.75937 75.5052 4.75937 74.946Z" fill="white"/>
<path d="M12.269 71.7302V77.8163H11.5241V71.7302H12.269Z" fill="white"/>
<path d="M17.7947 75.3901C17.7947 75.5327 17.7865 75.6834 17.7702 75.8424H14.1851C14.2123 76.2866 14.3624 76.6347 14.6352 76.887C14.9135 77.1337 15.2491 77.2571 15.642 77.2571C15.964 77.2571 16.2314 77.183 16.4442 77.035C16.6624 76.8815 16.8152 76.6786 16.9025 76.4264H17.7047C17.5846 76.8595 17.3445 77.2132 16.9844 77.4873C16.6242 77.756 16.1768 77.8903 15.642 77.8903C15.2164 77.8903 14.8344 77.7944 14.4961 77.6025C14.1632 77.4106 13.9013 77.1392 13.7103 76.7883C13.5193 76.4319 13.4238 76.0206 13.4238 75.5546C13.4238 75.0885 13.5166 74.6801 13.7021 74.3291C13.8877 73.9782 14.1469 73.7096 14.4797 73.5231C14.818 73.3312 15.2055 73.2353 15.642 73.2353C16.0677 73.2353 16.4442 73.3285 16.7716 73.5149C17.099 73.7013 17.35 73.959 17.5246 74.288C17.7047 74.6115 17.7947 74.9789 17.7947 75.3901ZM17.0253 75.2338C17.0253 74.9487 16.9626 74.7047 16.8371 74.5019C16.7116 74.2935 16.5397 74.1372 16.3214 74.0331C16.1086 73.9234 15.8712 73.8686 15.6093 73.8686C15.2328 73.8686 14.9108 73.9892 14.6434 74.2304C14.3815 74.4717 14.2314 74.8062 14.1932 75.2338H17.0253Z" fill="white"/>
<path d="M18.6633 75.5464C18.6633 75.0858 18.7561 74.6828 18.9416 74.3374C19.1271 73.9865 19.3809 73.715 19.7028 73.5231C20.0302 73.3312 20.3931 73.2353 20.7915 73.2353C21.1844 73.2353 21.5254 73.3203 21.8146 73.4902C22.1038 73.6602 22.3194 73.8741 22.4612 74.1318V73.3093H23.2143V77.8163H22.4612V76.9774C22.3139 77.2406 22.0929 77.4599 21.7982 77.6354C21.509 77.8054 21.1707 77.8903 20.7833 77.8903C20.3849 77.8903 20.0248 77.7917 19.7028 77.5943C19.3809 77.3969 19.1271 77.12 18.9416 76.7636C18.7561 76.4072 18.6633 76.0015 18.6633 75.5464ZM22.4612 75.5546C22.4612 75.2146 22.393 74.9186 22.2566 74.6663C22.1202 74.4141 21.9347 74.2222 21.7 74.0906C21.4708 73.9536 21.2171 73.885 20.9388 73.885C20.6605 73.885 20.4068 73.9508 20.1776 74.0824C19.9484 74.214 19.7656 74.4059 19.6292 74.6581C19.4927 74.9103 19.4245 75.2064 19.4245 75.5464C19.4245 75.8918 19.4927 76.1934 19.6292 76.4511C19.7656 76.7033 19.9484 76.8979 20.1776 77.035C20.4068 77.1666 20.6605 77.2324 20.9388 77.2324C21.2171 77.2324 21.4708 77.1666 21.7 77.035C21.9347 76.8979 22.1202 76.7033 22.2566 76.4511C22.393 76.1934 22.4612 75.8945 22.4612 75.5546Z" fill="white"/>
<path d="M26.8222 73.2271C27.3678 73.2271 27.8098 73.3943 28.1482 73.7288C28.4865 74.0577 28.6556 74.5348 28.6556 75.1598V77.8163H27.919V75.2667C27.919 74.8171 27.8071 74.4744 27.5834 74.2387C27.3596 73.9974 27.0541 73.8768 26.6666 73.8768C26.2737 73.8768 25.96 74.0002 25.7253 74.2469C25.4962 74.4936 25.3816 74.8528 25.3816 75.3243V77.8163H24.6367V73.3093H25.3816V73.9508C25.5289 73.7205 25.7281 73.5423 25.9791 73.4162C26.2355 73.2901 26.5166 73.2271 26.8222 73.2271Z" fill="white"/>
<path d="M30.4208 72.5773C30.2789 72.5773 30.1588 72.528 30.0606 72.4293C29.9624 72.3306 29.9133 72.21 29.9133 72.0674C29.9133 71.9249 29.9624 71.8042 30.0606 71.7055C30.1588 71.6068 30.2789 71.5575 30.4208 71.5575C30.5572 71.5575 30.6718 71.6068 30.7645 71.7055C30.8628 71.8042 30.9119 71.9249 30.9119 72.0674C30.9119 72.21 30.8628 72.3306 30.7645 72.4293C30.6718 72.528 30.5572 72.5773 30.4208 72.5773ZM30.7809 73.3093V77.8163H30.0361V73.3093H30.7809Z" fill="white"/>
<path d="M34.3995 73.2271C34.9452 73.2271 35.3872 73.3943 35.7255 73.7288C36.0638 74.0577 36.233 74.5348 36.233 75.1598V77.8163H35.4963V75.2667C35.4963 74.8171 35.3845 74.4744 35.1607 74.2387C34.937 73.9974 34.6314 73.8768 34.244 73.8768C33.8511 73.8768 33.5374 74.0002 33.3027 74.2469C33.0735 74.4936 32.9589 74.8528 32.9589 75.3243V77.8163H32.2141V73.3093H32.9589V73.9508C33.1063 73.7205 33.3054 73.5423 33.5565 73.4162C33.8129 73.2901 34.0939 73.2271 34.3995 73.2271Z" fill="white"/>
<path d="M39.4633 73.2353C39.8507 73.2353 40.189 73.3203 40.4782 73.4902C40.7729 73.6602 40.9912 73.8741 41.1331 74.1318V73.3093H41.8861V77.915C41.8861 78.3262 41.7988 78.6909 41.6242 79.0089C41.4495 79.3324 41.1985 79.5846 40.8711 79.7655C40.5492 79.9465 40.1727 80.0369 39.7416 80.0369C39.1522 80.0369 38.6611 79.8971 38.2682 79.6175C37.8753 79.3379 37.6434 78.9568 37.5725 78.4743H38.3092C38.391 78.7484 38.5602 78.9678 38.8166 79.1322C39.0731 79.3022 39.3814 79.3872 39.7416 79.3872C40.1508 79.3872 40.4837 79.2584 40.7402 79.0007C41.0021 78.743 41.1331 78.3811 41.1331 77.915V76.9692C40.9857 77.2324 40.7674 77.4517 40.4782 77.6272C40.189 77.8026 39.8507 77.8903 39.4633 77.8903C39.0649 77.8903 38.7021 77.7917 38.3746 77.5943C38.0527 77.3969 37.799 77.12 37.6134 76.7636C37.4279 76.4072 37.3351 76.0015 37.3351 75.5464C37.3351 75.0858 37.4279 74.6828 37.6134 74.3374C37.799 73.9865 38.0527 73.715 38.3746 73.5231C38.7021 73.3312 39.0649 73.2353 39.4633 73.2353ZM41.1331 75.5546C41.1331 75.2146 41.0648 74.9186 40.9284 74.6663C40.792 74.4141 40.6065 74.2222 40.3718 74.0906C40.1426 73.9536 39.8889 73.885 39.6106 73.885C39.3323 73.885 39.0786 73.9508 38.8494 74.0824C38.6202 74.214 38.4374 74.4059 38.301 74.6581C38.1646 74.9103 38.0964 75.2064 38.0964 75.5464C38.0964 75.8918 38.1646 76.1934 38.301 76.4511C38.4374 76.7033 38.6202 76.8979 38.8494 77.035C39.0786 77.1666 39.3323 77.2324 39.6106 77.2324C39.8889 77.2324 40.1426 77.1666 40.3718 77.035C40.6065 76.8979 40.792 76.7033 40.9284 76.4511C41.0648 76.1934 41.1331 75.8945 41.1331 75.5546Z" fill="white"/>
<path d="M47.4633 77.8739C47.0868 77.8739 46.7485 77.8081 46.4484 77.6765C46.1537 77.5394 45.9218 77.353 45.7526 77.1172C45.5835 76.876 45.4962 76.5991 45.4907 76.2866H46.2847C46.3119 76.5552 46.4211 76.7828 46.6121 76.9692C46.8085 77.1501 47.0923 77.2406 47.4633 77.2406C47.818 77.2406 48.0963 77.1529 48.2982 76.9774C48.5056 76.7965 48.6093 76.5662 48.6093 76.2866C48.6093 76.0673 48.5492 75.8891 48.4292 75.752C48.3091 75.6149 48.1591 75.5107 47.979 75.4394C47.7989 75.3682 47.5561 75.2914 47.2505 75.2092C46.874 75.1105 46.5711 75.0118 46.342 74.9131C46.1182 74.8144 45.9245 74.6609 45.7608 74.4525C45.6026 74.2387 45.5234 73.9536 45.5234 73.5972C45.5234 73.2846 45.6026 73.0077 45.7608 72.7665C45.9191 72.5252 46.1401 72.3388 46.4238 72.2072C46.713 72.0756 47.0432 72.0098 47.4142 72.0098C47.949 72.0098 48.3855 72.1442 48.7239 72.4128C49.0676 72.6815 49.2613 73.0379 49.305 73.482H48.4865C48.4592 73.2627 48.3446 73.0708 48.1427 72.9063C47.9408 72.7363 47.6734 72.6513 47.3406 72.6513C47.0295 72.6513 46.7758 72.7336 46.5793 72.8981C46.3829 73.0571 46.2847 73.2819 46.2847 73.5725C46.2847 73.7808 46.342 73.9508 46.4566 74.0824C46.5766 74.214 46.7212 74.3154 46.8904 74.3867C47.065 74.4525 47.3078 74.5293 47.6189 74.617C47.9954 74.7212 48.2982 74.8254 48.5274 74.9295C48.7566 75.0282 48.953 75.1845 49.1167 75.3983C49.2804 75.6067 49.3623 75.8918 49.3623 76.2537C49.3623 76.5333 49.2886 76.7965 49.1413 77.0432C48.994 77.29 48.7757 77.4901 48.4865 77.6436C48.1973 77.7971 47.8562 77.8739 47.4633 77.8739Z" fill="white"/>
<path d="M54.7147 75.3901C54.7147 75.5327 54.7065 75.6834 54.6901 75.8424H51.105C51.1323 76.2866 51.2824 76.6347 51.5552 76.887C51.8335 77.1337 52.1691 77.2571 52.562 77.2571C52.884 77.2571 53.1513 77.183 53.3642 77.035C53.5824 76.8815 53.7352 76.6786 53.8225 76.4264H54.6247C54.5046 76.8595 54.2645 77.2132 53.9044 77.4873C53.5442 77.756 53.0968 77.8903 52.562 77.8903C52.1364 77.8903 51.7544 77.7944 51.4161 77.6025C51.0832 77.4106 50.8213 77.1392 50.6303 76.7883C50.4393 76.4319 50.3438 76.0206 50.3438 75.5546C50.3438 75.0885 50.4366 74.6801 50.6221 74.3291C50.8076 73.9782 51.0668 73.7096 51.3997 73.5231C51.738 73.3312 52.1255 73.2353 52.562 73.2353C52.9876 73.2353 53.3641 73.3285 53.6916 73.5149C54.019 73.7013 54.27 73.959 54.4446 74.288C54.6247 74.6115 54.7147 74.9789 54.7147 75.3901ZM53.9453 75.2338C53.9453 74.9487 53.8825 74.7047 53.757 74.5019C53.6315 74.2935 53.4596 74.1372 53.2414 74.0331C53.0286 73.9234 52.7912 73.8686 52.5293 73.8686C52.1527 73.8686 51.8308 73.9892 51.5634 74.2304C51.3015 74.4717 51.1514 74.8062 51.1132 75.2338H53.9453Z" fill="white"/>
<path d="M56.6064 74.0413C56.7374 73.7836 56.9229 73.5835 57.163 73.4409C57.4086 73.2983 57.706 73.2271 58.0552 73.2271V74.0002H57.8588C57.0239 74.0002 56.6064 74.4553 56.6064 75.3654V77.8163H55.8616V73.3093H56.6064V74.0413Z" fill="white"/>
<path d="M60.7485 77.1255L62.14 73.3093H62.934L61.1742 77.8163H60.3065L58.5467 73.3093H59.3489L60.7485 77.1255Z" fill="white"/>
<path d="M64.2153 72.5773C64.0735 72.5773 63.9534 72.528 63.8552 72.4293C63.757 72.3306 63.7079 72.21 63.7079 72.0674C63.7079 71.9249 63.757 71.8042 63.8552 71.7055C63.9534 71.6068 64.0735 71.5575 64.2153 71.5575C64.3518 71.5575 64.4663 71.6068 64.5591 71.7055C64.6573 71.8042 64.7064 71.9249 64.7064 72.0674C64.7064 72.21 64.6573 72.3306 64.5591 72.4293C64.4663 72.528 64.3518 72.5773 64.2153 72.5773ZM64.5755 73.3093V77.8163H63.8306V73.3093H64.5755Z" fill="white"/>
<path d="M65.7304 75.5546C65.7304 75.0885 65.8231 74.6828 66.0087 74.3374C66.1942 73.9865 66.4507 73.715 66.7781 73.5231C67.1109 73.3312 67.4902 73.2353 67.9158 73.2353C68.4669 73.2353 68.9199 73.3696 69.2746 73.6383C69.6347 73.9069 69.8721 74.2798 69.9867 74.7568H69.1845C69.1081 74.4827 68.9581 74.2661 68.7343 74.1071C68.5161 73.9481 68.2432 73.8686 67.9158 73.8686C67.4902 73.8686 67.1464 74.0166 66.8845 74.3127C66.6225 74.6033 66.4916 75.0173 66.4916 75.5546C66.4916 76.0974 66.6225 76.5169 66.8845 76.8129C67.1464 77.109 67.4902 77.2571 67.9158 77.2571C68.2432 77.2571 68.5161 77.1803 68.7343 77.0268C68.9526 76.8733 69.1027 76.6539 69.1845 76.3688H69.9867C69.8666 76.8294 69.6265 77.1995 69.2664 77.4791C68.9062 77.7533 68.456 77.8903 67.9158 77.8903C67.4902 77.8903 67.1109 77.7944 66.7781 77.6025C66.4507 77.4106 66.1942 77.1392 66.0087 76.7883C65.8231 76.4374 65.7304 76.0261 65.7304 75.5546Z" fill="white"/>
<path d="M75.2368 75.3901C75.2368 75.5327 75.2286 75.6834 75.2123 75.8424H71.6272C71.6544 76.2866 71.8045 76.6347 72.0773 76.887C72.3556 77.1337 72.6912 77.2571 73.0841 77.2571C73.4061 77.2571 73.6735 77.183 73.8863 77.035C74.1045 76.8815 74.2573 76.6786 74.3446 76.4264H75.1468C75.0267 76.8595 74.7866 77.2132 74.4265 77.4873C74.0663 77.756 73.6189 77.8903 73.0841 77.8903C72.6585 77.8903 72.2765 77.7944 71.9382 77.6025C71.6053 77.4106 71.3434 77.1392 71.1524 76.7883C70.9614 76.4319 70.8659 76.0206 70.8659 75.5546C70.8659 75.0885 70.9587 74.6801 71.1442 74.3291C71.3298 73.9782 71.589 73.7096 71.9218 73.5231C72.2601 73.3312 72.6476 73.2353 73.0841 73.2353C73.5097 73.2353 73.8863 73.3285 74.2137 73.5149C74.5411 73.7013 74.7921 73.959 74.9667 74.288C75.1468 74.6115 75.2368 74.9789 75.2368 75.3901ZM74.4674 75.2338C74.4674 74.9487 74.4047 74.7047 74.2792 74.5019C74.1536 74.2935 73.9818 74.1372 73.7635 74.0331C73.5507 73.9234 73.3133 73.8686 73.0514 73.8686C72.6749 73.8686 72.3529 73.9892 72.0855 74.2304C71.8236 74.4717 71.6735 74.8062 71.6353 75.2338H74.4674Z" fill="white"/>
<path d="M77.9716 77.8903C77.6279 77.8903 77.3195 77.8328 77.0467 77.7176C76.7739 77.597 76.5583 77.4325 76.4001 77.2242C76.2418 77.0103 76.1545 76.7663 76.1382 76.4922H76.9076C76.9294 76.717 77.0331 76.9007 77.2186 77.0432C77.4096 77.1858 77.6579 77.2571 77.9634 77.2571C78.2472 77.2571 78.4709 77.194 78.6346 77.0679C78.7983 76.9418 78.8802 76.7828 78.8802 76.5909C78.8802 76.3935 78.7929 76.2482 78.6183 76.155C78.4436 76.0563 78.1735 75.9603 77.8079 75.8671C77.4751 75.7794 77.2022 75.6917 76.9894 75.6039C76.782 75.5107 76.602 75.3764 76.4492 75.2009C76.3019 75.02 76.2282 74.7842 76.2282 74.4936C76.2282 74.2633 76.2964 74.0523 76.4328 73.8603C76.5692 73.6684 76.763 73.5177 77.014 73.408C77.265 73.2929 77.5515 73.2353 77.8734 73.2353C78.37 73.2353 78.7711 73.3614 79.0766 73.6136C79.3822 73.8658 79.5459 74.2113 79.5677 74.6499H78.8229C78.8065 74.4141 78.711 74.225 78.5364 74.0824C78.3672 73.9398 78.1381 73.8686 77.8489 73.8686C77.5815 73.8686 77.3687 73.9261 77.2104 74.0413C77.0522 74.1564 76.973 74.3072 76.973 74.4936C76.973 74.6417 77.0194 74.765 77.1122 74.8637C77.2104 74.9569 77.3305 75.0337 77.4723 75.094C77.6197 75.1488 77.8216 75.2119 78.078 75.2832C78.4 75.3709 78.6619 75.4586 78.8638 75.5464C79.0657 75.6286 79.2376 75.7547 79.3795 75.9247C79.5268 76.0947 79.6032 76.3167 79.6087 76.5909C79.6087 76.8376 79.5405 77.0597 79.404 77.2571C79.2676 77.4544 79.0739 77.6107 78.8229 77.7259C78.5773 77.8355 78.2936 77.8903 77.9716 77.8903Z" fill="white"/>
<path d="M25.7825 58.0257V45.697C25.7825 43.1388 26.6798 40.9582 28.4744 39.1551C30.269 37.352 32.4391 36.4505 34.9848 36.4505H38.2137V19.0932C38.2137 18.3111 38.5034 17.6289 39.0829 17.0466C39.6625 16.4643 40.3414 16.1732 41.1196 16.1732H44.51C45.2883 16.1732 45.9672 16.4643 46.5467 17.0466C47.1262 17.6289 47.4159 18.3111 47.4159 19.0932V36.4505H50.6448C53.1908 36.4505 55.361 37.352 57.1555 39.1551C58.9499 40.9582 59.8471 43.1388 59.8471 45.697V58.0257H25.7825ZM27.397 56.4034H33.9152V48.7792C33.9152 48.5494 33.9924 48.3567 34.1467 48.2013C34.301 48.0458 34.5022 47.9681 34.7501 47.9681C34.9442 47.9681 35.1227 48.0458 35.2855 48.2013C35.4483 48.3567 35.5297 48.5494 35.5297 48.7792V56.4034H42.0076V48.7792C42.0076 48.5494 42.0847 48.3567 42.2391 48.2013C42.3934 48.0458 42.5878 47.9681 42.8223 47.9681C43.0568 47.9681 43.2487 48.0458 43.398 48.2013C43.5474 48.3567 43.6221 48.5494 43.6221 48.7792V56.4034H50.1403V48.7792C50.1403 48.5494 50.2175 48.3567 50.3718 48.2013C50.5261 48.0458 50.7272 47.9681 50.9752 47.9681C51.1693 47.9681 51.3478 48.0458 51.5106 48.2013C51.6734 48.3567 51.7548 48.5494 51.7548 48.7792V56.4034H58.2327V45.697C58.2327 43.5769 57.4955 41.7762 56.0212 40.2948C54.5469 38.8134 52.757 38.0727 50.6514 38.0727H34.9848C32.8995 38.0727 31.1135 38.8134 29.6269 40.2948C28.1403 41.7762 27.397 43.5769 27.397 45.697V56.4034ZM45.8015 36.4505V19.0932C45.8015 18.7146 45.6804 18.4037 45.4383 18.1604C45.1961 17.917 44.8867 17.7954 44.51 17.7954H41.1196C40.7429 17.7954 40.4335 17.917 40.1914 18.1604C39.9492 18.4037 39.8281 18.7146 39.8281 19.0932V36.4505H45.8015Z" fill="white"/>
</g>
</svg>
