<svg width="85" height="93" viewBox="0 0 85 93" fill="none" xmlns="http://www.w3.org/2000/svg">
<g id="Vector">
<path d="M0 7.59184C0 3.39898 3.38274 0 7.55556 0H77.4444C81.6173 0 85 3.39898 85 7.59184V85.4082C85 89.601 81.6173 93 77.4444 93H7.55555C3.38274 93 0 89.601 0 85.4082V7.59184Z" fill="#3E5E63"/>
<path d="M19.2409 74.3133C19.2409 73.7541 19.3664 73.2524 19.6174 72.8082C19.8684 72.3586 20.2094 72.0077 20.6405 71.7555C21.0771 71.5033 21.56 71.3772 22.0893 71.3772C22.7114 71.3772 23.2543 71.528 23.7181 71.8295C24.182 72.1311 24.5203 72.5588 24.7331 73.1126H23.8409C23.6827 72.7671 23.4535 72.5012 23.1534 72.3148C22.8587 72.1284 22.504 72.0351 22.0893 72.0351C21.691 72.0351 21.3335 72.1284 21.017 72.3148C20.7005 72.5012 20.4523 72.7671 20.2722 73.1126C20.0921 73.4525 20.0021 73.8528 20.0021 74.3133C20.0021 74.7684 20.0921 75.1687 20.2722 75.5141C20.4523 75.854 20.7005 76.1172 21.017 76.3037C21.3335 76.4901 21.691 76.5833 22.0893 76.5833C22.504 76.5833 22.8587 76.4928 23.1534 76.3119C23.4535 76.1255 23.6827 75.8595 23.8409 75.5141H24.7331C24.5203 76.0624 24.182 76.4873 23.7181 76.7889C23.2543 77.085 22.7114 77.233 22.0893 77.233C21.56 77.233 21.0771 77.1097 20.6405 76.8629C20.2094 76.6107 19.8684 76.2625 19.6174 75.8184C19.3664 75.3743 19.2409 74.8726 19.2409 74.3133Z" fill="white"/>
<path d="M27.9618 77.2577C27.5417 77.2577 27.1597 77.1617 26.8159 76.9698C26.4776 76.7779 26.2102 76.5065 26.0138 76.1556C25.8228 75.7992 25.7273 75.388 25.7273 74.9219C25.7273 74.4614 25.8255 74.0556 26.022 73.7047C26.2239 73.3483 26.4967 73.0769 26.8405 72.8905C27.1843 72.6986 27.569 72.6026 27.9946 72.6026C28.4202 72.6026 28.8049 72.6986 29.1487 72.8905C29.4925 73.0769 29.7626 73.3456 29.959 73.6965C30.1609 74.0474 30.2619 74.4559 30.2619 74.9219C30.2619 75.388 30.1582 75.7992 29.9508 76.1556C29.7489 76.5065 29.4734 76.7779 29.1241 76.9698C28.7749 77.1617 28.3875 77.2577 27.9618 77.2577ZM27.9618 76.5997C28.2292 76.5997 28.4802 76.5367 28.7149 76.4106C28.9495 76.2845 29.1378 76.0953 29.2797 75.8431C29.427 75.5909 29.5007 75.2838 29.5007 74.9219C29.5007 74.5601 29.4297 74.253 29.2878 74.0008C29.146 73.7486 28.9604 73.5622 28.7313 73.4415C28.5021 73.3154 28.2538 73.2524 27.9864 73.2524C27.7136 73.2524 27.4625 73.3154 27.2334 73.4415C27.0096 73.5622 26.8296 73.7486 26.6931 74.0008C26.5567 74.253 26.4885 74.5601 26.4885 74.9219C26.4885 75.2893 26.554 75.5991 26.685 75.8513C26.8214 76.1035 27.0015 76.2927 27.2252 76.4188C27.4489 76.5394 27.6945 76.5997 27.9618 76.5997Z" fill="white"/>
<path d="M33.5904 72.5944C34.1361 72.5944 34.5781 72.7616 34.9164 73.0961C35.2547 73.4251 35.4239 73.9021 35.4239 74.5272V77.1837H34.6872V74.6341C34.6872 74.1845 34.5753 73.8418 34.3516 73.606C34.1279 73.3648 33.8223 73.2441 33.4349 73.2441C33.042 73.2441 32.7282 73.3675 32.4936 73.6142C32.2644 73.861 32.1498 74.2201 32.1498 74.6917V77.1837H31.4049V72.6767H32.1498V73.3182C32.2971 73.0879 32.4963 72.9097 32.7473 72.7836C33.0038 72.6575 33.2848 72.5944 33.5904 72.5944Z" fill="white"/>
<path d="M37.7128 73.2935V75.95C37.7128 76.1693 37.7592 76.3256 37.852 76.4188C37.9447 76.5065 38.1057 76.5504 38.3349 76.5504H38.8833V77.1837H38.2121C37.7974 77.1837 37.4864 77.0877 37.279 76.8958C37.0717 76.7039 36.968 76.3886 36.968 75.95V73.2935H36.3868V72.6767H36.968V71.5417H37.7128V72.6767H38.8833V73.2935H37.7128Z" fill="white"/>
<path d="M39.6712 74.9137C39.6712 74.4531 39.764 74.0501 39.9495 73.7047C40.135 73.3538 40.3888 73.0824 40.7107 72.8905C41.0381 72.6986 41.401 72.6026 41.7994 72.6026C42.1922 72.6026 42.5333 72.6876 42.8225 72.8576C43.1117 73.0276 43.3273 73.2414 43.4691 73.4991V72.6767H44.2222V77.1837H43.4691V76.3448C43.3218 76.608 43.1008 76.8273 42.8061 77.0027C42.5169 77.1727 42.1786 77.2577 41.7912 77.2577C41.3928 77.2577 41.0327 77.159 40.7107 76.9616C40.3888 76.7642 40.135 76.4873 39.9495 76.1309C39.764 75.7745 39.6712 75.3688 39.6712 74.9137ZM43.4691 74.9219C43.4691 74.582 43.4009 74.2859 43.2645 74.0337C43.1281 73.7815 42.9425 73.5896 42.7079 73.458C42.4787 73.3209 42.225 73.2524 41.9467 73.2524C41.6684 73.2524 41.4146 73.3182 41.1855 73.4498C40.9563 73.5813 40.7735 73.7733 40.6371 74.0255C40.5006 74.2777 40.4324 74.5738 40.4324 74.9137C40.4324 75.2591 40.5006 75.5607 40.6371 75.8184C40.7735 76.0706 40.9563 76.2653 41.1855 76.4023C41.4146 76.5339 41.6684 76.5997 41.9467 76.5997C42.225 76.5997 42.4787 76.5339 42.7079 76.4023C42.9425 76.2653 43.1281 76.0706 43.2645 75.8184C43.4009 75.5607 43.4691 75.2619 43.4691 74.9219Z" fill="white"/>
<path d="M45.3663 74.9219C45.3663 74.4559 45.4591 74.0501 45.6446 73.7047C45.8301 73.3538 46.0866 73.0824 46.414 72.8905C46.7469 72.6986 47.1261 72.6026 47.5517 72.6026C48.1029 72.6026 48.5558 72.737 48.9105 73.0056C49.2706 73.2743 49.508 73.6471 49.6226 74.1242H48.8204C48.7441 73.85 48.594 73.6334 48.3703 73.4744C48.152 73.3154 47.8792 73.2359 47.5517 73.2359C47.1261 73.2359 46.7823 73.384 46.5204 73.68C46.2585 73.9706 46.1275 74.3846 46.1275 74.9219C46.1275 75.4648 46.2585 75.8842 46.5204 76.1803C46.7823 76.4764 47.1261 76.6244 47.5517 76.6244C47.8792 76.6244 48.152 76.5476 48.3703 76.3941C48.5885 76.2406 48.7386 76.0213 48.8204 75.7362H49.6226C49.5025 76.1967 49.2624 76.5668 48.9023 76.8465C48.5421 77.1206 48.092 77.2577 47.5517 77.2577C47.1261 77.2577 46.7469 77.1617 46.414 76.9698C46.0866 76.7779 45.8301 76.5065 45.6446 76.1556C45.4591 75.8047 45.3663 75.3935 45.3663 74.9219Z" fill="white"/>
<path d="M51.6887 73.2935V75.95C51.6887 76.1693 51.7351 76.3256 51.8279 76.4188C51.9206 76.5065 52.0816 76.5504 52.3108 76.5504H52.8592V77.1837H52.188C51.7733 77.1837 51.4623 77.0877 51.2549 76.8958C51.0475 76.7039 50.9439 76.3886 50.9439 75.95V73.2935H50.3627V72.6767H50.9439V71.5417H51.6887V72.6767H52.8592V73.2935H51.6887Z" fill="white"/>
<path d="M56.9997 71.4512V75.0782C56.9997 75.5881 57.1225 75.9665 57.3681 76.2132C57.6191 76.4599 57.9656 76.5833 58.4076 76.5833C58.8441 76.5833 59.1852 76.4599 59.4307 76.2132C59.6818 75.9665 59.8073 75.5881 59.8073 75.0782V71.4512H60.5521V75.07C60.5521 75.547 60.4566 75.95 60.2656 76.279C60.0747 76.6025 59.8155 76.8437 59.488 77.0027C59.1661 77.1617 58.8032 77.2412 58.3994 77.2412C57.9956 77.2412 57.63 77.1617 57.3026 77.0027C56.9807 76.8437 56.7242 76.6025 56.5332 76.279C56.3477 75.95 56.2549 75.547 56.2549 75.07V71.4512H56.9997Z" fill="white"/>
<path d="M63.5463 77.2577C63.2025 77.2577 62.8942 77.2001 62.6214 77.085C62.3485 76.9644 62.133 76.7999 61.9747 76.5915C61.8165 76.3777 61.7292 76.1337 61.7128 75.8595H62.4822C62.504 76.0843 62.6077 76.268 62.7933 76.4106C62.9842 76.5531 63.2325 76.6244 63.5381 76.6244C63.8219 76.6244 64.0456 76.5614 64.2093 76.4352C64.373 76.3091 64.4549 76.1501 64.4549 75.9582C64.4549 75.7608 64.3675 75.6155 64.1929 75.5223C64.0183 75.4236 63.7482 75.3277 63.3826 75.2345C63.0497 75.1467 62.7769 75.059 62.5641 74.9713C62.3567 74.8781 62.1766 74.7437 62.0239 74.5683C61.8765 74.3873 61.8029 74.1516 61.8029 73.861C61.8029 73.6307 61.8711 73.4196 62.0075 73.2277C62.1439 73.0358 62.3376 72.885 62.5886 72.7753C62.8396 72.6602 63.1261 72.6026 63.4481 72.6026C63.9446 72.6026 64.3457 72.7287 64.6513 72.981C64.9569 73.2332 65.1206 73.5786 65.1424 74.0172H64.3976C64.3812 73.7815 64.2857 73.5923 64.1111 73.4498C63.9419 73.3072 63.7127 73.2359 63.4235 73.2359C63.1561 73.2359 62.9433 73.2935 62.7851 73.4086C62.6268 73.5238 62.5477 73.6746 62.5477 73.861C62.5477 74.009 62.5941 74.1324 62.6868 74.2311C62.7851 74.3243 62.9051 74.4011 63.047 74.4614C63.1943 74.5162 63.3962 74.5793 63.6527 74.6505C63.9747 74.7383 64.2366 74.826 64.4385 74.9137C64.6404 74.996 64.8123 75.1221 64.9541 75.292C65.1015 75.462 65.1779 75.6841 65.1833 75.9582C65.1833 76.205 65.1151 76.427 64.9787 76.6244C64.8423 76.8218 64.6486 76.9781 64.3976 77.0932C64.152 77.2029 63.8682 77.2577 63.5463 77.2577Z" fill="white"/>
<path d="M57.2438 53.3213C53.7028 53.3213 50.0872 52.3615 46.3968 50.4419C42.7065 48.5223 39.3572 46.058 36.349 43.0488C33.3408 40.0396 30.8814 36.6878 28.971 32.9933C27.0606 29.2987 26.1054 25.6724 26.1054 22.1144C26.1054 21.4598 26.3226 20.9142 26.757 20.4778C27.1913 20.0413 27.7342 19.8231 28.3858 19.8231H33.0273C33.6215 19.8231 34.1299 20.0036 34.5526 20.3645C34.9753 20.7255 35.2525 21.2141 35.3844 21.8306L36.4782 26.5268C36.575 27.0729 36.5595 27.5684 36.4317 28.0131C36.3039 28.4579 36.0755 28.8186 35.7464 29.0952L31.098 33.4941C33.1645 36.9521 35.4335 39.9072 37.9049 42.3594C40.3763 44.8116 43.2722 46.9488 46.5926 48.7711L51.0928 44.0505C51.4426 43.6639 51.8247 43.3982 52.2391 43.2536C52.6535 43.109 53.1015 43.0894 53.5831 43.1948L57.5264 44.0789C58.1427 44.1975 58.6298 44.4793 58.9875 44.9242C59.3453 45.3691 59.5242 45.9106 59.5242 46.5487V51.03C59.5242 51.6846 59.307 52.2302 58.8727 52.6666C58.4383 53.1031 57.8954 53.3213 57.2438 53.3213ZM30.2505 32.0544L34.6619 27.9341C34.7695 27.8259 34.8435 27.6772 34.8839 27.488C34.9243 27.2987 34.931 27.123 34.9041 26.9608L33.8183 22.0942C33.7915 21.8779 33.704 21.7157 33.556 21.6075C33.408 21.4994 33.2264 21.4453 33.0112 21.4453H28.2849C28.1234 21.4453 27.9889 21.4994 27.8813 21.6075C27.7737 21.7157 27.7199 21.8509 27.7199 22.0131C27.666 23.4109 27.8692 24.954 28.3293 26.6424C28.7894 28.3308 29.4298 30.1348 30.2505 32.0544ZM57.3447 51.7397C57.5062 51.7397 57.6407 51.6856 57.7483 51.5775C57.8559 51.4693 57.9098 51.3341 57.9098 51.1719V46.4635C57.9098 46.2472 57.8559 46.0647 57.7483 45.916C57.6407 45.7673 57.4793 45.6794 57.264 45.6524L53.1512 44.7886C52.9898 44.7616 52.8485 44.7683 52.7274 44.8089C52.6064 44.8494 52.4786 44.9238 52.344 45.0319L48.1182 49.4889C49.5524 50.2378 51.1359 50.7961 52.8687 51.1638C54.6015 51.5315 56.0935 51.7234 57.3447 51.7397Z" fill="white"/>
</g>
</svg>
