<svg width="85" height="93" viewBox="0 0 85 93" fill="none" xmlns="http://www.w3.org/2000/svg">
<g id="Vector">
<path d="M0 7.59184C0 3.39898 3.38274 0 7.55556 0H77.4444C81.6173 0 85 3.39898 85 7.59184V85.4082C85 89.601 81.6173 93 77.4444 93H7.55555C3.38274 93 0 89.601 0 85.4082V7.59184Z" fill="#3E5E63"/>
<path d="M9.33237 71.4512C9.95444 71.4512 10.4919 71.5691 10.9449 71.8049C11.4032 72.0351 11.7525 72.3669 11.9926 72.8C12.2381 73.2332 12.3609 73.7431 12.3609 74.3298C12.3609 74.9165 12.2381 75.4264 11.9926 75.8595C11.7525 76.2872 11.4032 76.6162 10.9449 76.8465C10.4919 77.0713 9.95444 77.1837 9.33237 77.1837H7.55619V71.4512H9.33237ZM9.33237 76.5668C10.069 76.5668 10.6311 76.3722 11.0185 75.9829C11.406 75.5881 11.5997 75.0371 11.5997 74.3298C11.5997 73.617 11.4032 73.0605 11.0103 72.6602C10.6229 72.2599 10.0636 72.0598 9.33237 72.0598H8.30104V76.5668H9.33237Z" fill="white"/>
<path d="M17.5997 74.7574C17.5997 74.9 17.5915 75.0508 17.5751 75.2098H13.99C14.0173 75.6539 14.1673 76.0021 14.4402 76.2543C14.7185 76.501 15.0541 76.6244 15.447 76.6244C15.7689 76.6244 16.0363 76.5504 16.2491 76.4023C16.4674 76.2488 16.6202 76.046 16.7075 75.7937H17.5096C17.3896 76.2269 17.1495 76.5805 16.7893 76.8547C16.4292 77.1234 15.9817 77.2577 15.447 77.2577C15.0213 77.2577 14.6394 77.1617 14.301 76.9698C13.9682 76.7779 13.7062 76.5065 13.5153 76.1556C13.3243 75.7992 13.2288 75.388 13.2288 74.9219C13.2288 74.4559 13.3215 74.0474 13.5071 73.6965C13.6926 73.3456 13.9518 73.0769 14.2847 72.8905C14.623 72.6986 15.0104 72.6026 15.447 72.6026C15.8726 72.6026 16.2491 72.6958 16.5765 72.8823C16.9039 73.0687 17.1549 73.3264 17.3296 73.6554C17.5096 73.9789 17.5997 74.3462 17.5997 74.7574ZM16.8303 74.6012C16.8303 74.3161 16.7675 74.0721 16.642 73.8692C16.5165 73.6609 16.3446 73.5046 16.1263 73.4004C15.9135 73.2907 15.6761 73.2359 15.4142 73.2359C15.0377 73.2359 14.7157 73.3565 14.4484 73.5978C14.1864 73.839 14.0364 74.1735 13.9982 74.6012H16.8303Z" fill="white"/>
<path d="M19.4914 71.0975V77.1837H18.7465V71.0975H19.4914Z" fill="white"/>
<path d="M21.3093 71.9447C21.1674 71.9447 21.0474 71.8953 20.9491 71.7966C20.8509 71.6979 20.8018 71.5773 20.8018 71.4348C20.8018 71.2922 20.8509 71.1716 20.9491 71.0729C21.0474 70.9742 21.1674 70.9248 21.3093 70.9248C21.4457 70.9248 21.5603 70.9742 21.6531 71.0729C21.7513 71.1716 21.8004 71.2922 21.8004 71.4348C21.8004 71.5773 21.7513 71.6979 21.6531 71.7966C21.5603 71.8953 21.4457 71.9447 21.3093 71.9447ZM21.6694 72.6767V77.1837H20.9246V72.6767H21.6694Z" fill="white"/>
<path d="M24.7724 76.4928L26.1639 72.6767H26.9578L25.198 77.1837H24.3304L22.5706 72.6767H23.3727L24.7724 76.4928Z" fill="white"/>
<path d="M31.9471 74.7574C31.9471 74.9 31.9389 75.0508 31.9225 75.2098H28.3374C28.3647 75.6539 28.5148 76.0021 28.7876 76.2543C29.0659 76.501 29.4015 76.6244 29.7944 76.6244C30.1163 76.6244 30.3837 76.5504 30.5965 76.4023C30.8148 76.2488 30.9676 76.046 31.0549 75.7937H31.857C31.737 76.2269 31.4969 76.5805 31.1367 76.8547C30.7766 77.1234 30.3291 77.2577 29.7944 77.2577C29.3687 77.2577 28.9868 77.1617 28.6484 76.9698C28.3156 76.7779 28.0537 76.5065 27.8627 76.1556C27.6717 75.7992 27.5762 75.388 27.5762 74.9219C27.5762 74.4559 27.669 74.0474 27.8545 73.6965C28.04 73.3456 28.2992 73.0769 28.6321 72.8905C28.9704 72.6986 29.3578 72.6026 29.7944 72.6026C30.22 72.6026 30.5965 72.6958 30.9239 72.8823C31.2513 73.0687 31.5023 73.3264 31.677 73.6554C31.857 73.9789 31.9471 74.3462 31.9471 74.7574ZM31.1777 74.6012C31.1777 74.3161 31.1149 74.0721 30.9894 73.8692C30.8639 73.6609 30.692 73.5046 30.4737 73.4004C30.2609 73.2907 30.0236 73.2359 29.7616 73.2359C29.3851 73.2359 29.0632 73.3565 28.7958 73.5978C28.5339 73.839 28.3838 74.1735 28.3456 74.6012H31.1777Z" fill="white"/>
<path d="M33.8388 73.4086C33.9698 73.1509 34.1553 72.9508 34.3954 72.8082C34.641 72.6657 34.9384 72.5944 35.2876 72.5944V73.3675H35.0911C34.2563 73.3675 33.8388 73.8226 33.8388 74.7328V77.1837H33.094V72.6767H33.8388V73.4086Z" fill="white"/>
<path d="M40.1745 72.6767L37.4734 79.3056H36.704L37.588 77.1343L35.7791 72.6767H36.6058L38.0136 76.3283L39.4051 72.6767H40.1745Z" fill="white"/>
<path d="M45.2418 77.2412C44.8653 77.2412 44.527 77.1754 44.2268 77.0439C43.9322 76.9068 43.7003 76.7204 43.5311 76.4846C43.3619 76.2433 43.2746 75.9664 43.2692 75.6539H44.0631C44.0904 75.9226 44.1996 76.1501 44.3905 76.3366C44.587 76.5175 44.8707 76.608 45.2418 76.608C45.5965 76.608 45.8748 76.5202 46.0767 76.3448C46.284 76.1638 46.3877 75.9336 46.3877 75.6539C46.3877 75.4346 46.3277 75.2564 46.2077 75.1193C46.0876 74.9823 45.9375 74.8781 45.7575 74.8068C45.5774 74.7355 45.3346 74.6588 45.029 74.5765C44.6525 74.4778 44.3496 74.3791 44.1204 74.2804C43.8967 74.1817 43.703 74.0282 43.5393 73.8199C43.381 73.606 43.3019 73.3209 43.3019 72.9645C43.3019 72.652 43.381 72.3751 43.5393 72.1338C43.6975 71.8926 43.9185 71.7062 44.2023 71.5746C44.4915 71.443 44.8216 71.3772 45.1927 71.3772C45.7275 71.3772 46.164 71.5115 46.5023 71.7802C46.8461 72.0488 47.0398 72.4052 47.0835 72.8494H46.2649C46.2377 72.63 46.1231 72.4381 45.9212 72.2737C45.7193 72.1037 45.4519 72.0187 45.119 72.0187C44.808 72.0187 44.5542 72.1009 44.3578 72.2654C44.1614 72.4244 44.0631 72.6492 44.0631 72.9398C44.0631 73.1482 44.1204 73.3182 44.235 73.4498C44.3551 73.5813 44.4997 73.6828 44.6688 73.7541C44.8435 73.8199 45.0863 73.8966 45.3973 73.9843C45.7738 74.0885 46.0767 74.1927 46.3059 74.2969C46.5351 74.3956 46.7315 74.5518 46.8952 74.7657C47.0589 74.974 47.1408 75.2591 47.1408 75.621C47.1408 75.9007 47.0671 76.1638 46.9198 76.4106C46.7724 76.6573 46.5542 76.8574 46.2649 77.011C45.9757 77.1645 45.6347 77.2412 45.2418 77.2412Z" fill="white"/>
<path d="M52.4932 74.7574C52.4932 74.9 52.485 75.0508 52.4686 75.2098H48.8835C48.9108 75.6539 49.0608 76.0021 49.3337 76.2543C49.612 76.501 49.9476 76.6244 50.3405 76.6244C50.6624 76.6244 50.9298 76.5504 51.1426 76.4023C51.3609 76.2488 51.5137 76.046 51.601 75.7937H52.4031C52.2831 76.2269 52.043 76.5805 51.6828 76.8547C51.3227 77.1234 50.8752 77.2577 50.3405 77.2577C49.9148 77.2577 49.5329 77.1617 49.1945 76.9698C48.8617 76.7779 48.5997 76.5065 48.4088 76.1556C48.2178 75.7992 48.1223 75.388 48.1223 74.9219C48.1223 74.4559 48.215 74.0474 48.4006 73.6965C48.5861 73.3456 48.8453 73.0769 49.1782 72.8905C49.5165 72.6986 49.9039 72.6026 50.3405 72.6026C50.7661 72.6026 51.1426 72.6958 51.47 72.8823C51.7974 73.0687 52.0484 73.3264 52.2231 73.6554C52.4031 73.9789 52.4932 74.3462 52.4932 74.7574ZM51.7238 74.6012C51.7238 74.3161 51.661 74.0721 51.5355 73.8692C51.41 73.6609 51.2381 73.5046 51.0198 73.4004C50.807 73.2907 50.5696 73.2359 50.3077 73.2359C49.9312 73.2359 49.6093 73.3565 49.3419 73.5978C49.0799 73.839 48.9299 74.1735 48.8917 74.6012H51.7238Z" fill="white"/>
<path d="M54.3849 73.4086C54.5159 73.1509 54.7014 72.9508 54.9415 72.8082C55.1871 72.6657 55.4845 72.5944 55.8337 72.5944V73.3675H55.6372C54.8023 73.3675 54.3849 73.8226 54.3849 74.7328V77.1837H53.6401V72.6767H54.3849V73.4086Z" fill="white"/>
<path d="M58.527 76.4928L59.9185 72.6767H60.7124L58.9526 77.1837H58.085L56.3252 72.6767H57.1273L58.527 76.4928Z" fill="white"/>
<path d="M61.9938 71.9447C61.8519 71.9447 61.7319 71.8953 61.6337 71.7966C61.5354 71.6979 61.4863 71.5773 61.4863 71.4348C61.4863 71.2922 61.5354 71.1716 61.6337 71.0729C61.7319 70.9742 61.8519 70.9248 61.9938 70.9248C62.1302 70.9248 62.2448 70.9742 62.3376 71.0729C62.4358 71.1716 62.4849 71.2922 62.4849 71.4348C62.4849 71.5773 62.4358 71.6979 62.3376 71.7966C62.2448 71.8953 62.1302 71.9447 61.9938 71.9447ZM62.3539 72.6767V77.1837H61.6091V72.6767H62.3539Z" fill="white"/>
<path d="M63.5088 74.9219C63.5088 74.4559 63.6016 74.0501 63.7871 73.7047C63.9727 73.3538 64.2291 73.0824 64.5565 72.8905C64.8894 72.6986 65.2686 72.6026 65.6943 72.6026C66.2454 72.6026 66.6983 72.737 67.053 73.0056C67.4132 73.2743 67.6505 73.6471 67.7651 74.1242H66.963C66.8866 73.85 66.7365 73.6334 66.5128 73.4744C66.2945 73.3154 66.0217 73.2359 65.6943 73.2359C65.2686 73.2359 64.9249 73.384 64.6629 73.68C64.401 73.9706 64.2701 74.3846 64.2701 74.9219C64.2701 75.4648 64.401 75.8842 64.6629 76.1803C64.9249 76.4764 65.2686 76.6244 65.6943 76.6244C66.0217 76.6244 66.2945 76.5476 66.5128 76.3941C66.7311 76.2406 66.8811 76.0213 66.963 75.7362H67.7651C67.6451 76.1967 67.405 76.5668 67.0448 76.8465C66.6847 77.1206 66.2345 77.2577 65.6943 77.2577C65.2686 77.2577 64.8894 77.1617 64.5565 76.9698C64.2291 76.7779 63.9727 76.5065 63.7871 76.1556C63.6016 75.8047 63.5088 75.3935 63.5088 74.9219Z" fill="white"/>
<path d="M73.0153 74.7574C73.0153 74.9 73.0071 75.0508 72.9907 75.2098H69.4056C69.4329 75.6539 69.583 76.0021 69.8558 76.2543C70.1341 76.501 70.4697 76.6244 70.8626 76.6244C71.1845 76.6244 71.4519 76.5504 71.6647 76.4023C71.883 76.2488 72.0358 76.046 72.1231 75.7937H72.9252C72.8052 76.2269 72.5651 76.5805 72.2049 76.8547C71.8448 77.1234 71.3973 77.2577 70.8626 77.2577C70.437 77.2577 70.055 77.1617 69.7167 76.9698C69.3838 76.7779 69.1219 76.5065 68.9309 76.1556C68.7399 75.7992 68.6444 75.388 68.6444 74.9219C68.6444 74.4559 68.7372 74.0474 68.9227 73.6965C69.1082 73.3456 69.3674 73.0769 69.7003 72.8905C70.0386 72.6986 70.426 72.6026 70.8626 72.6026C71.2882 72.6026 71.6647 72.6958 71.9921 72.8823C72.3195 73.0687 72.5706 73.3264 72.7452 73.6554C72.9252 73.9789 73.0153 74.3462 73.0153 74.7574ZM72.2459 74.6012C72.2459 74.3161 72.1831 74.0721 72.0576 73.8692C71.9321 73.6609 71.7602 73.5046 71.542 73.4004C71.3291 73.2907 71.0918 73.2359 70.8298 73.2359C70.4533 73.2359 70.1314 73.3565 69.864 73.5978C69.6021 73.839 69.452 74.1735 69.4138 74.6012H72.2459Z" fill="white"/>
<path d="M75.7501 77.2577C75.4063 77.2577 75.098 77.2001 74.8252 77.085C74.5523 76.9644 74.3368 76.7999 74.1785 76.5915C74.0203 76.3777 73.933 76.1337 73.9166 75.8595H74.686C74.7078 76.0843 74.8115 76.268 74.9971 76.4106C75.188 76.5531 75.4363 76.6244 75.7419 76.6244C76.0257 76.6244 76.2494 76.5614 76.4131 76.4352C76.5768 76.3091 76.6587 76.1501 76.6587 75.9582C76.6587 75.7608 76.5713 75.6155 76.3967 75.5223C76.2221 75.4236 75.952 75.3277 75.5864 75.2345C75.2535 75.1467 74.9807 75.059 74.7679 74.9713C74.5605 74.8781 74.3804 74.7437 74.2277 74.5683C74.0803 74.3873 74.0067 74.1516 74.0067 73.861C74.0067 73.6307 74.0749 73.4196 74.2113 73.2277C74.3477 73.0358 74.5414 72.885 74.7924 72.7753C75.0434 72.6602 75.3299 72.6026 75.6519 72.6026C76.1484 72.6026 76.5495 72.7287 76.8551 72.981C77.1607 73.2332 77.3244 73.5786 77.3462 74.0172H76.6014C76.585 73.7815 76.4895 73.5923 76.3149 73.4498C76.1457 73.3072 75.9165 73.2359 75.6273 73.2359C75.3599 73.2359 75.1471 73.2935 74.9889 73.4086C74.8306 73.5238 74.7515 73.6746 74.7515 73.861C74.7515 74.009 74.7979 74.1324 74.8907 74.2311C74.9889 74.3243 75.1089 74.4011 75.2508 74.4614C75.3981 74.5162 75.6 74.5793 75.8565 74.6505C76.1785 74.7383 76.4404 74.826 76.6423 74.9137C76.8442 74.996 77.0161 75.1221 77.158 75.292C77.3053 75.462 77.3817 75.6841 77.3871 75.9582C77.3871 76.205 77.3189 76.427 77.1825 76.6244C77.0461 76.8218 76.8524 76.9781 76.6014 77.0932C76.3558 77.2029 76.072 77.2577 75.7501 77.2577Z" fill="white"/>
<path d="M28.3071 48.6645C26.9008 48.6645 25.7143 48.1775 24.7473 47.2034C23.7804 46.2293 23.2969 45.0233 23.2969 43.5852H23.155C22.5533 43.5102 22.0296 43.2124 21.5837 42.6917C21.1379 42.1711 20.915 41.5686 20.915 40.8843V23.8421C20.915 23.0925 21.1765 22.4549 21.6995 21.9294C22.2225 21.4039 22.857 21.1412 23.603 21.1412H47.0375C47.7574 21.1412 48.3854 21.4105 48.9214 21.9491C49.4575 22.4877 49.7255 23.1187 49.7255 23.8421V28.3474H53.2009C53.4146 28.3474 53.6149 28.3899 53.8021 28.475C53.9893 28.56 54.1387 28.7 54.2504 28.8951L60.683 37.5344C60.7552 37.65 60.8155 37.7741 60.8641 37.9066C60.9126 38.0391 60.9369 38.1826 60.9369 38.3371V42.2348C60.9369 42.6174 60.8081 42.9381 60.5504 43.197C60.2929 43.4558 59.9737 43.5852 59.5929 43.5852H58.0136C58.0136 45.0274 57.5214 46.2345 56.5371 47.2065C55.5527 48.1785 54.3574 48.6645 52.9511 48.6645C51.5449 48.6645 50.3583 48.1775 49.3914 47.2034C48.4244 46.2293 47.9409 45.0233 47.9409 43.5852H33.3696C33.3696 45.0357 32.8774 46.2449 31.893 47.2128C30.9087 48.1806 29.7134 48.6645 28.3071 48.6645ZM28.3519 47.164C29.3276 47.164 30.1589 46.8055 30.8458 46.0885C31.5327 45.3715 31.8762 44.5299 31.8762 43.5638C31.8762 42.5978 31.5327 41.7696 30.8458 41.0794C30.1589 40.3891 29.3276 40.044 28.3519 40.044C27.3762 40.044 26.5387 40.3891 25.8393 41.0794C25.14 41.7696 24.7903 42.5978 24.7903 43.5638C24.7903 44.5299 25.14 45.3715 25.8393 46.0885C26.5387 46.8055 27.3762 47.164 28.3519 47.164ZM22.4083 23.8421V40.8843C22.4083 41.0344 22.4332 41.1782 22.483 41.3157C22.5328 41.4532 22.595 41.572 22.6697 41.6721C22.7444 41.7721 22.8377 41.8596 22.9497 41.9347C23.0617 42.0097 23.1799 42.0597 23.3044 42.0847H23.4388C23.715 41.1069 24.3118 40.2703 25.229 39.5751C26.1463 38.8798 27.1735 38.5322 28.3107 38.5322C29.3981 38.5322 30.4123 38.8755 31.3533 39.562C32.2943 40.2484 32.9029 41.0894 33.1792 42.0847H48.2321V23.8421C48.2321 23.492 48.1139 23.2044 47.8775 22.9793C47.641 22.7542 47.361 22.6417 47.0375 22.6417H23.603C23.2546 22.6417 22.9684 22.7542 22.7444 22.9793C22.5203 23.2044 22.4083 23.492 22.4083 23.8421ZM52.9959 47.164C53.9716 47.164 54.8029 46.8055 55.4899 46.0885C56.1768 45.3715 56.5203 44.5299 56.5203 43.5638C56.5203 42.5978 56.1768 41.7696 55.4899 41.0794C54.8029 40.3891 53.9716 40.044 52.9959 40.044C52.0203 40.044 51.1828 40.3891 50.4834 41.0794C49.784 41.7696 49.4343 42.5978 49.4343 43.5638C49.4343 44.5299 49.784 45.3715 50.4834 46.0885C51.1828 46.8055 52.0203 47.164 52.9959 47.164ZM49.7255 38.0408H59.2382L53.0296 29.848H49.7255V38.0408Z" fill="white"/>
</g>
</svg>
