<svg width="66" height="66" viewBox="0 0 66 66" fill="none" xmlns="http://www.w3.org/2000/svg">
<path d="M19.5321 48.4846L33 35.0167L46.4679 48.4846L48.4846 46.4679L35.0167 33L48.4846 19.5321L46.4679 17.5154L33 30.9833L19.5321 17.5154L17.5154 19.5321L30.9833 33L17.5154 46.4679L19.5321 48.4846ZM33.0123 66C28.4631 66 24.1916 65.1341 20.1978 63.4023C16.204 61.6704 12.706 59.3047 9.70374 56.3052C6.70154 53.3058 4.33369 49.8111 2.60022 45.8211C0.866739 41.831 0 37.5615 0 33.0123C0 28.4489 0.865914 24.1586 2.59774 20.1414C4.32963 16.1241 6.6953 12.6296 9.69476 9.65791C12.6942 6.68626 16.1889 4.3337 20.179 2.60022C24.169 0.866741 28.4385 0 32.9877 0C37.5511 0 41.8414 0.865913 45.8586 2.59774C49.8759 4.32963 53.3704 6.68002 56.3421 9.64892C59.3137 12.6178 61.6663 16.109 63.3998 20.1225C65.1333 24.136 66 28.4244 66 32.9877C66 37.537 65.1341 41.8084 63.4023 45.8022C61.6704 49.796 59.32 53.294 56.3511 56.2963C53.3822 59.2985 49.891 61.6663 45.8775 63.3998C41.864 65.1333 37.5756 66 33.0123 66ZM33 63.1795C41.3958 63.1795 48.5246 60.245 54.3866 54.3759C60.2485 48.5069 63.1795 41.3816 63.1795 33C63.1795 24.6043 60.2485 17.4754 54.3866 11.6134C48.5246 5.75147 41.3958 2.82049 33 2.82049C24.6184 2.82049 17.4931 5.75147 11.6241 11.6134C5.75502 17.4754 2.82049 24.6043 2.82049 33C2.82049 41.3816 5.75502 48.5069 11.6241 54.3759C17.4931 60.245 24.6184 63.1795 33 63.1795Z" fill="#FF0000"/>
</svg>
