<svg width="85" height="93" viewBox="0 0 85 93" fill="none" xmlns="http://www.w3.org/2000/svg">
<g id="Vector">
<path d="M0 7.59184C0 3.39898 3.38274 0 7.55556 0H77.4444C81.6173 0 85 3.39898 85 7.59184V85.4082C85 89.601 81.6173 93 77.4444 93H7.55555C3.38274 93 0 89.601 0 85.4082V7.59184Z" fill="#3E5E63"/>
<path d="M20.0688 77.8739C19.6923 77.8739 19.354 77.8081 19.0539 77.6765C18.7592 77.5394 18.5273 77.353 18.3581 77.1172C18.1889 76.876 18.1016 76.5991 18.0962 76.2866H18.8901C18.9174 76.5552 19.0266 76.7828 19.2176 76.9692C19.414 77.1501 19.6978 77.2406 20.0688 77.2406C20.4235 77.2406 20.7018 77.1529 20.9037 76.9774C21.1111 76.7965 21.2147 76.5662 21.2147 76.2866C21.2147 76.0673 21.1547 75.8891 21.0347 75.752C20.9146 75.6149 20.7646 75.5107 20.5845 75.4394C20.4044 75.3682 20.1616 75.2914 19.856 75.2092C19.4795 75.1105 19.1766 75.0118 18.9474 74.9131C18.7237 74.8144 18.53 74.6609 18.3663 74.4525C18.208 74.2387 18.1289 73.9536 18.1289 73.5972C18.1289 73.2846 18.208 73.0077 18.3663 72.7665C18.5245 72.5252 18.7455 72.3388 19.0293 72.2072C19.3185 72.0756 19.6486 72.0098 20.0197 72.0098C20.5545 72.0098 20.991 72.1442 21.3293 72.4128C21.6731 72.6815 21.8668 73.0379 21.9105 73.482H21.092C21.0647 73.2627 20.9501 73.0708 20.7482 72.9063C20.5463 72.7363 20.2789 72.6513 19.946 72.6513C19.635 72.6513 19.3813 72.7336 19.1848 72.8981C18.9884 73.0571 18.8901 73.2819 18.8901 73.5725C18.8901 73.7808 18.9474 73.9508 19.062 74.0824C19.1821 74.214 19.3267 74.3154 19.4959 74.3867C19.6705 74.4525 19.9133 74.5293 20.2243 74.617C20.6009 74.7212 20.9037 74.8254 21.1329 74.9295C21.3621 75.0282 21.5585 75.1845 21.7222 75.3983C21.8859 75.6067 21.9678 75.8918 21.9678 76.2537C21.9678 76.5333 21.8941 76.7965 21.7468 77.0432C21.5994 77.29 21.3812 77.4901 21.092 77.6436C20.8028 77.7971 20.4617 77.8739 20.0688 77.8739Z" fill="white"/>
<path d="M23.9724 74.14C24.1198 73.8823 24.338 73.6684 24.6273 73.4985C24.9219 73.323 25.263 73.2353 25.6504 73.2353C26.0488 73.2353 26.4089 73.3312 26.7309 73.5231C27.0583 73.715 27.3147 73.9865 27.5003 74.3374C27.6858 74.6828 27.7786 75.0858 27.7786 75.5464C27.7786 76.0015 27.6858 76.4072 27.5003 76.7636C27.3147 77.12 27.0583 77.3969 26.7309 77.5943C26.4089 77.7917 26.0488 77.8903 25.6504 77.8903C25.2684 77.8903 24.9301 77.8054 24.6354 77.6354C24.3462 77.4599 24.1252 77.2434 23.9724 76.9857V79.9547H23.2276V73.3093H23.9724V74.14ZM27.0173 75.5464C27.0173 75.2064 26.9491 74.9103 26.8127 74.6581C26.6763 74.4059 26.4908 74.214 26.2561 74.0824C26.0269 73.9508 25.7732 73.885 25.4949 73.885C25.222 73.885 24.9683 73.9536 24.7337 74.0906C24.5045 74.2222 24.319 74.4169 24.1771 74.6746C24.0407 74.9268 23.9724 75.2201 23.9724 75.5546C23.9724 75.8945 24.0407 76.1934 24.1771 76.4511C24.319 76.7033 24.5045 76.8979 24.7337 77.035C24.9683 77.1666 25.222 77.2324 25.4949 77.2324C25.7732 77.2324 26.0269 77.1666 26.2561 77.035C26.4908 76.8979 26.6763 76.7033 26.8127 76.4511C26.9491 76.1934 27.0173 75.8918 27.0173 75.5464Z" fill="white"/>
<path d="M33.0153 75.3901C33.0153 75.5327 33.0071 75.6834 32.9907 75.8424H29.4056C29.4329 76.2866 29.583 76.6347 29.8558 76.887C30.1341 77.1337 30.4697 77.2571 30.8626 77.2571C31.1845 77.2571 31.4519 77.183 31.6647 77.035C31.883 76.8815 32.0358 76.6786 32.1231 76.4264H32.9252C32.8052 76.8595 32.5651 77.2132 32.205 77.4873C31.8448 77.756 31.3973 77.8903 30.8626 77.8903C30.437 77.8903 30.055 77.7944 29.7167 77.6025C29.3838 77.4106 29.1219 77.1392 28.9309 76.7883C28.7399 76.4319 28.6444 76.0206 28.6444 75.5546C28.6444 75.0885 28.7372 74.6801 28.9227 74.3291C29.1082 73.9782 29.3674 73.7096 29.7003 73.5231C30.0386 73.3312 30.426 73.2353 30.8626 73.2353C31.2882 73.2353 31.6647 73.3285 31.9921 73.5149C32.3195 73.7013 32.5706 73.959 32.7452 74.288C32.9252 74.6115 33.0153 74.9789 33.0153 75.3901ZM32.2459 75.2338C32.2459 74.9487 32.1831 74.7047 32.0576 74.5019C31.9321 74.2935 31.7602 74.1372 31.5419 74.0331C31.3291 73.9234 31.0918 73.8686 30.8298 73.8686C30.4533 73.8686 30.1314 73.9892 29.864 74.2304C29.6021 74.4717 29.452 74.8062 29.4138 75.2338H32.2459Z" fill="white"/>
<path d="M33.8839 75.5546C33.8839 75.0885 33.9766 74.6828 34.1622 74.3374C34.3477 73.9865 34.6042 73.715 34.9316 73.5231C35.2644 73.3312 35.6437 73.2353 36.0693 73.2353C36.6205 73.2353 37.0734 73.3696 37.4281 73.6383C37.7882 73.9069 38.0256 74.2798 38.1402 74.7568H37.338C37.2616 74.4827 37.1116 74.2661 36.8878 74.1071C36.6696 73.9481 36.3967 73.8686 36.0693 73.8686C35.6437 73.8686 35.2999 74.0166 35.038 74.3127C34.7761 74.6033 34.6451 75.0173 34.6451 75.5546C34.6451 76.0974 34.7761 76.5169 35.038 76.8129C35.2999 77.109 35.6437 77.2571 36.0693 77.2571C36.3967 77.2571 36.6696 77.1803 36.8878 77.0268C37.1061 76.8733 37.2562 76.6539 37.338 76.3688H38.1402C38.0201 76.8294 37.78 77.1995 37.4199 77.4791C37.0597 77.7533 36.6095 77.8903 36.0693 77.8903C35.6437 77.8903 35.2644 77.7944 34.9316 77.6025C34.6042 77.4106 34.3477 77.1392 34.1622 76.7883C33.9766 76.4374 33.8839 76.0261 33.8839 75.5546Z" fill="white"/>
<path d="M39.6824 72.5773C39.5406 72.5773 39.4205 72.528 39.3223 72.4293C39.2241 72.3306 39.175 72.21 39.175 72.0674C39.175 71.9249 39.2241 71.8042 39.3223 71.7055C39.4205 71.6068 39.5406 71.5575 39.6824 71.5575C39.8189 71.5575 39.9334 71.6068 40.0262 71.7055C40.1244 71.8042 40.1735 71.9249 40.1735 72.0674C40.1735 72.21 40.1244 72.3306 40.0262 72.4293C39.9334 72.528 39.8189 72.5773 39.6824 72.5773ZM40.0426 73.3093V77.8163H39.2977V73.3093H40.0426Z" fill="white"/>
<path d="M41.1975 75.5464C41.1975 75.0858 41.2902 74.6828 41.4758 74.3374C41.6613 73.9865 41.915 73.715 42.237 73.5231C42.5644 73.3312 42.9273 73.2353 43.3256 73.2353C43.7185 73.2353 44.0595 73.3203 44.3488 73.4902C44.638 73.6602 44.8535 73.8741 44.9954 74.1318V73.3093H45.7484V77.8163H44.9954V76.9774C44.8481 77.2406 44.6271 77.4599 44.3324 77.6354C44.0432 77.8054 43.7049 77.8903 43.3174 77.8903C42.9191 77.8903 42.5589 77.7917 42.237 77.5943C41.915 77.3969 41.6613 77.12 41.4758 76.7636C41.2902 76.4072 41.1975 76.0015 41.1975 75.5464ZM44.9954 75.5546C44.9954 75.2146 44.9272 74.9186 44.7908 74.6663C44.6543 74.4141 44.4688 74.2222 44.2342 74.0906C44.005 73.9536 43.7512 73.885 43.4729 73.885C43.1946 73.885 42.9409 73.9508 42.7117 74.0824C42.4825 74.214 42.2997 74.4059 42.1633 74.6581C42.0269 74.9103 41.9587 75.2064 41.9587 75.5464C41.9587 75.8918 42.0269 76.1934 42.1633 76.4511C42.2997 76.7033 42.4825 76.8979 42.7117 77.035C42.9409 77.1666 43.1946 77.2324 43.4729 77.2324C43.7512 77.2324 44.005 77.1666 44.2342 77.035C44.4688 76.8979 44.6543 76.7033 44.7908 76.4511C44.9272 76.1934 44.9954 75.8945 44.9954 75.5546Z" fill="white"/>
<path d="M47.9157 71.7302V77.8163H47.1709V71.7302H47.9157Z" fill="white"/>
<path d="M56.0902 72.0839V77.8163H55.3454V75.2174H52.4396V77.8163H51.6948V72.0839H52.4396V74.6006H55.3454V72.0839H56.0902Z" fill="white"/>
<path d="M57.9105 72.5773C57.7686 72.5773 57.6485 72.528 57.5503 72.4293C57.4521 72.3306 57.403 72.21 57.403 72.0674C57.403 71.9249 57.4521 71.8042 57.5503 71.7055C57.6485 71.6068 57.7686 71.5575 57.9105 71.5575C58.0469 71.5575 58.1615 71.6068 58.2542 71.7055C58.3525 71.8042 58.4016 71.9249 58.4016 72.0674C58.4016 72.21 58.3525 72.3306 58.2542 72.4293C58.1615 72.528 58.0469 72.5773 57.9105 72.5773ZM58.2706 73.3093V77.8163H57.5258V73.3093H58.2706Z" fill="white"/>
<path d="M60.4486 74.0413C60.5796 73.7836 60.7651 73.5835 61.0052 73.4409C61.2508 73.2983 61.5482 73.2271 61.8974 73.2271V74.0002H61.701C60.8661 74.0002 60.4486 74.4553 60.4486 75.3654V77.8163H59.7038V73.3093H60.4486V74.0413Z" fill="white"/>
<path d="M67.0135 75.3901C67.0135 75.5327 67.0053 75.6834 66.989 75.8424H63.4039C63.4312 76.2866 63.5812 76.6347 63.8541 76.887C64.1324 77.1337 64.4679 77.2571 64.8608 77.2571C65.1828 77.2571 65.4502 77.183 65.663 77.035C65.8813 76.8815 66.034 76.6786 66.1214 76.4264H66.9235C66.8035 76.8595 66.5633 77.2132 66.2032 77.4873C65.8431 77.756 65.3956 77.8903 64.8608 77.8903C64.4352 77.8903 64.0532 77.7944 63.7149 77.6025C63.382 77.4106 63.1201 77.1392 62.9291 76.7883C62.7381 76.4319 62.6426 76.0206 62.6426 75.5546C62.6426 75.0885 62.7354 74.6801 62.9209 74.3291C63.1065 73.9782 63.3657 73.7096 63.6985 73.5231C64.0369 73.3312 64.4243 73.2353 64.8608 73.2353C65.2865 73.2353 65.663 73.3285 65.9904 73.5149C66.3178 73.7013 66.5688 73.959 66.7434 74.288C66.9235 74.6115 67.0135 74.9789 67.0135 75.3901ZM66.2441 75.2338C66.2441 74.9487 66.1814 74.7047 66.0559 74.5019C65.9304 74.2935 65.7585 74.1372 65.5402 74.0331C65.3274 73.9234 65.09 73.8686 64.8281 73.8686C64.4516 73.8686 64.1296 73.9892 63.8622 74.2304C63.6003 74.4717 63.4503 74.8062 63.4121 75.2338H66.2441Z" fill="white"/>
<path d="M26.81 53.5646C26.5797 53.5646 26.3913 53.4858 26.2446 53.3281C26.098 53.1704 26.0247 52.9788 26.0247 52.7535V37.1724L30.202 24.8519C30.2801 24.5761 30.4359 24.372 30.6694 24.2395C30.903 24.1071 31.1629 24.0408 31.4492 24.0408H31.4209H38.8393V22.3578C38.8393 21.9705 38.9785 21.6303 39.257 21.3373C39.5355 21.0443 39.8806 20.8978 40.2923 20.8978H45.5634C45.9751 20.8978 46.3202 21.0443 46.5987 21.3373C46.8771 21.6303 47.0164 21.9705 47.0164 22.3578V24.0408H54.3419C54.6074 24.0408 54.8357 24.1118 55.0268 24.2537C55.2179 24.3957 55.3515 24.5951 55.4276 24.8519L59.6049 37.1724V52.7535C59.6049 52.9788 59.5243 53.1704 59.3632 53.3281C59.2019 53.4858 59.0062 53.5646 58.7759 53.5646C58.5456 53.5646 58.3551 53.4846 58.2044 53.3245C58.0537 53.1644 57.9784 52.9701 57.9784 52.7414V49.2577H27.6391V52.7535C27.6391 52.9788 27.5585 53.1704 27.3973 53.3281C27.2361 53.4858 27.0404 53.5646 26.81 53.5646ZM28.2809 35.5502H57.3488L53.9383 25.663H31.6914L28.2809 35.5502ZM32.868 44.6345C33.4908 44.6345 34.0128 44.4153 34.4339 43.9771C34.855 43.5388 35.0655 43.0153 35.0655 42.4066C35.0655 41.7686 34.8474 41.2369 34.4113 40.8116C33.9751 40.3862 33.4585 40.1735 32.8614 40.1735C32.2351 40.1735 31.7059 40.3881 31.2739 40.8175C30.8418 41.2468 30.6258 41.7787 30.6258 42.4133C30.6258 43.0479 30.8438 43.5767 31.2798 43.9998C31.7158 44.4229 32.2452 44.6345 32.868 44.6345ZM52.8089 44.6345C53.4272 44.6345 53.9496 44.4153 54.3761 43.9771C54.8027 43.5388 55.0159 43.0153 55.0159 42.4066C55.0159 41.7686 54.8007 41.2369 54.3702 40.8116C53.9398 40.3862 53.4171 40.1735 52.8022 40.1735C52.1873 40.1735 51.6626 40.3881 51.228 40.8175C50.7935 41.2468 50.5762 41.7787 50.5762 42.4133C50.5762 43.0479 50.801 43.5767 51.2506 43.9998C51.7003 44.4229 52.2197 44.6345 52.8089 44.6345ZM27.6391 47.6356H57.9905V37.1724H27.6391V47.6356Z" fill="white"/>
</g>
</svg>
