<svg width="85" height="93" viewBox="0 0 85 93" fill="none" xmlns="http://www.w3.org/2000/svg">
<path d="M0 7.59184C0 3.39898 3.38274 0 7.55556 0H77.4444C81.6173 0 85 3.39898 85 7.59184V85.4082C85 89.601 81.6173 93 77.4444 93H7.55555C3.38274 93 0 89.601 0 85.4082V7.59184Z" fill="#3E5E63"/>
<path d="M8.30104 78.473H10.2982V79.0816H7.55619V73.3492H8.30104V78.473Z" fill="white"/>
<path d="M10.9747 76.8117C10.9747 76.3511 11.0674 75.9481 11.2529 75.6027C11.4385 75.2518 11.6922 74.9804 12.0142 74.7884C12.3416 74.5965 12.7045 74.5006 13.1028 74.5006C13.4957 74.5006 13.8367 74.5856 14.1259 74.7556C14.4152 74.9255 14.6307 75.1394 14.7726 75.3971V74.5746H15.5256V79.0816H14.7726V78.2427C14.6252 78.5059 14.4042 78.7252 14.1096 78.9007C13.8204 79.0707 13.482 79.1557 13.0946 79.1557C12.6963 79.1557 12.3361 79.057 12.0142 78.8596C11.6922 78.6622 11.4385 78.3853 11.2529 78.0289C11.0674 77.6725 10.9747 77.2668 10.9747 76.8117ZM14.7726 76.8199C14.7726 76.48 14.7044 76.1839 14.5679 75.9317C14.4315 75.6794 14.246 75.4875 14.0114 75.3559C13.7822 75.2189 13.5284 75.1503 13.2501 75.1503C12.9718 75.1503 12.7181 75.2161 12.4889 75.3477C12.2597 75.4793 12.0769 75.6712 11.9405 75.9234C11.8041 76.1756 11.7359 76.4717 11.7359 76.8117C11.7359 77.1571 11.8041 77.4587 11.9405 77.7164C12.0769 77.9686 12.2597 78.1632 12.4889 78.3003C12.7181 78.4319 12.9718 78.4977 13.2501 78.4977C13.5284 78.4977 13.7822 78.4319 14.0114 78.3003C14.246 78.1632 14.4315 77.9686 14.5679 77.7164C14.7044 77.4587 14.7726 77.1598 14.7726 76.8199Z" fill="white"/>
<path d="M20.926 74.5746V79.0816H20.1812V78.4154C20.0393 78.6457 19.8401 78.8267 19.5837 78.9583C19.3327 79.0844 19.0544 79.1474 18.7488 79.1474C18.3996 79.1474 18.0858 79.0761 17.8075 78.9336C17.5292 78.7855 17.3082 78.5662 17.1445 78.2756C16.9862 77.985 16.9071 77.6314 16.9071 77.2147V74.5746H17.6438V77.116C17.6438 77.5601 17.7557 77.9028 17.9794 78.144C18.2031 78.3798 18.5087 78.4977 18.8961 78.4977C19.2945 78.4977 19.6082 78.3743 19.8374 78.1276C20.0666 77.8809 20.1812 77.5217 20.1812 77.0502V74.5746H20.926Z" fill="white"/>
<path d="M24.5328 74.4924C25.0785 74.4924 25.5205 74.6596 25.8588 74.9941C26.1972 75.323 26.3663 75.8001 26.3663 76.4251V79.0816H25.6296V76.532C25.6296 76.0824 25.5178 75.7397 25.2941 75.504C25.0703 75.2627 24.7647 75.1421 24.3773 75.1421C23.9844 75.1421 23.6707 75.2655 23.436 75.5122C23.2068 75.7589 23.0922 76.1181 23.0922 76.5896V79.0816H22.3474V74.5746H23.0922V75.2161C23.2396 74.9858 23.4387 74.8076 23.6898 74.6815C23.9462 74.5554 24.2273 74.4924 24.5328 74.4924Z" fill="white"/>
<path d="M27.4684 76.8117C27.4684 76.3511 27.5612 75.9481 27.7467 75.6027C27.9323 75.2518 28.186 74.9804 28.508 74.7884C28.8354 74.5965 29.201 74.5006 29.6048 74.5006C29.954 74.5006 30.2787 74.5828 30.5788 74.7473C30.8789 74.9063 31.1081 75.1174 31.2664 75.3806V72.9955H32.0194V79.0816H31.2664V78.2345C31.119 78.5032 30.9008 78.7252 30.6115 78.9007C30.3223 79.0707 29.984 79.1557 29.5966 79.1557C29.1982 79.1557 28.8354 79.057 28.508 78.8596C28.186 78.6622 27.9323 78.3853 27.7467 78.0289C27.5612 77.6725 27.4684 77.2668 27.4684 76.8117ZM31.2664 76.8199C31.2664 76.48 31.1982 76.1839 31.0617 75.9317C30.9253 75.6794 30.7398 75.4875 30.5051 75.3559C30.276 75.2189 30.0222 75.1503 29.7439 75.1503C29.4656 75.1503 29.2119 75.2161 28.9827 75.3477C28.7535 75.4793 28.5707 75.6712 28.4343 75.9234C28.2979 76.1756 28.2297 76.4717 28.2297 76.8117C28.2297 77.1571 28.2979 77.4587 28.4343 77.7164C28.5707 77.9686 28.7535 78.1632 28.9827 78.3003C29.2119 78.4319 29.4656 78.4977 29.7439 78.4977C30.0222 78.4977 30.276 78.4319 30.5051 78.3003C30.7398 78.1632 30.9253 77.9686 31.0617 77.7164C31.1982 77.4587 31.2664 77.1598 31.2664 76.8199Z" fill="white"/>
<path d="M34.1867 75.3066C34.3176 75.0489 34.5032 74.8488 34.7433 74.7062C34.9888 74.5636 35.2862 74.4924 35.6355 74.4924V75.2655H35.439C34.6041 75.2655 34.1867 75.7206 34.1867 76.6307V79.0816H33.4418V74.5746H34.1867V75.3066Z" fill="white"/>
<path d="M40.5224 74.5746L37.8213 81.2036H37.0519L37.9359 79.0323L36.127 74.5746H36.9537L38.3615 78.2263L39.753 74.5746H40.5224Z" fill="white"/>
<path d="M45.5897 79.1392C45.2132 79.1392 44.8748 79.0734 44.5747 78.9418C44.28 78.8047 44.0481 78.6183 43.879 78.3825C43.7098 78.1413 43.6225 77.8644 43.617 77.5519H44.411C44.4383 77.8205 44.5474 78.0481 44.7384 78.2345C44.9349 78.4155 45.2186 78.5059 45.5897 78.5059C45.9444 78.5059 46.2227 78.4182 46.4246 78.2427C46.6319 78.0618 46.7356 77.8315 46.7356 77.5519C46.7356 77.3326 46.6756 77.1544 46.5555 77.0173C46.4355 76.8802 46.2854 76.776 46.1053 76.7048C45.9253 76.6335 45.6824 76.5567 45.3769 76.4745C45.0003 76.3758 44.6975 76.2771 44.4683 76.1784C44.2446 76.0797 44.0509 75.9262 43.8872 75.7178C43.7289 75.504 43.6498 75.2189 43.6498 74.8625C43.6498 74.5499 43.7289 74.273 43.8872 74.0318C44.0454 73.7905 44.2664 73.6041 44.5502 73.4725C44.8394 73.3409 45.1695 73.2751 45.5406 73.2751C46.0753 73.2751 46.5119 73.4095 46.8502 73.6781C47.194 73.9468 47.3877 74.3032 47.4313 74.7473H46.6128C46.5855 74.528 46.4709 74.3361 46.269 74.1716C46.0671 74.0016 45.7998 73.9167 45.4669 73.9167C45.1559 73.9167 44.9021 73.9989 44.7057 74.1634C44.5092 74.3224 44.411 74.5472 44.411 74.8378C44.411 75.0461 44.4683 75.2161 44.5829 75.3477C44.7029 75.4793 44.8475 75.5807 45.0167 75.652C45.1913 75.7178 45.4342 75.7946 45.7452 75.8823C46.1217 75.9865 46.4246 76.0907 46.6537 76.1948C46.8829 76.2935 47.0794 76.4498 47.2431 76.6636C47.4068 76.872 47.4886 77.1571 47.4886 77.519C47.4886 77.7986 47.415 78.0618 47.2676 78.3085C47.1203 78.5553 46.902 78.7554 46.6128 78.9089C46.3236 79.0624 45.9826 79.1392 45.5897 79.1392Z" fill="white"/>
<path d="M52.841 76.6554C52.841 76.798 52.8329 76.9487 52.8165 77.1078H49.2314C49.2587 77.5519 49.4087 77.9 49.6816 78.1523C49.9599 78.399 50.2954 78.5224 50.6883 78.5224C51.0103 78.5224 51.2777 78.4483 51.4905 78.3003C51.7088 78.1468 51.8615 77.9439 51.9489 77.6917H52.751C52.631 78.1249 52.3909 78.4785 52.0307 78.7527C51.6706 79.0213 51.2231 79.1557 50.6883 79.1557C50.2627 79.1557 49.8807 79.0597 49.5424 78.8678C49.2095 78.6759 48.9476 78.4045 48.7566 78.0536C48.5656 77.6972 48.4701 77.286 48.4701 76.8199C48.4701 76.3538 48.5629 75.9454 48.7484 75.5944C48.934 75.2435 49.1932 74.9749 49.526 74.7884C49.8644 74.5965 50.2518 74.5006 50.6883 74.5006C51.114 74.5006 51.4905 74.5938 51.8179 74.7802C52.1453 74.9666 52.3963 75.2243 52.5709 75.5533C52.751 75.8768 52.841 76.2442 52.841 76.6554ZM52.0716 76.4991C52.0716 76.214 52.0089 75.97 51.8834 75.7672C51.7579 75.5588 51.586 75.4025 51.3677 75.2984C51.1549 75.1887 50.9175 75.1339 50.6556 75.1339C50.2791 75.1339 49.9571 75.2545 49.6897 75.4958C49.4278 75.737 49.2778 76.0715 49.2396 76.4991H52.0716Z" fill="white"/>
<path d="M54.7328 75.3066C54.8637 75.0489 55.0493 74.8488 55.2894 74.7062C55.5349 74.5636 55.8323 74.4924 56.1816 74.4924V75.2655H55.9851C55.1502 75.2655 54.7328 75.7206 54.7328 76.6307V79.0816H53.9879V74.5746H54.7328V75.3066Z" fill="white"/>
<path d="M58.8749 78.3908L60.2663 74.5746H61.0603L59.3005 79.0816H58.4329L56.673 74.5746H57.4752L58.8749 78.3908Z" fill="white"/>
<path d="M62.3417 73.8426C62.1998 73.8426 62.0798 73.7933 61.9815 73.6946C61.8833 73.5959 61.8342 73.4753 61.8342 73.3327C61.8342 73.1902 61.8833 73.0695 61.9815 72.9708C62.0798 72.8721 62.1998 72.8228 62.3417 72.8228C62.4781 72.8228 62.5927 72.8721 62.6855 72.9708C62.7837 73.0695 62.8328 73.1902 62.8328 73.3327C62.8328 73.4753 62.7837 73.5959 62.6855 73.6946C62.5927 73.7933 62.4781 73.8426 62.3417 73.8426ZM62.7018 74.5746V79.0816H61.957V74.5746H62.7018Z" fill="white"/>
<path d="M63.8567 76.8199C63.8567 76.3538 63.9495 75.9481 64.135 75.6027C64.3205 75.2518 64.577 74.9804 64.9044 74.7884C65.2373 74.5965 65.6165 74.5006 66.0421 74.5006C66.5933 74.5006 67.0462 74.6349 67.4009 74.9036C67.761 75.1723 67.9984 75.5451 68.113 76.0221H67.3108C67.2345 75.748 67.0844 75.5314 66.8607 75.3724C66.6424 75.2134 66.3696 75.1339 66.0421 75.1339C65.6165 75.1339 65.2727 75.2819 65.0108 75.578C64.7489 75.8686 64.6179 76.2826 64.6179 76.8199C64.6179 77.3627 64.7489 77.7822 65.0108 78.0782C65.2727 78.3743 65.6165 78.5224 66.0421 78.5224C66.3696 78.5224 66.6424 78.4456 66.8607 78.2921C67.0789 78.1386 67.229 77.9192 67.3108 77.6341H68.113C67.9929 78.0947 67.7528 78.4648 67.3927 78.7444C67.0326 79.0186 66.5824 79.1557 66.0421 79.1557C65.6165 79.1557 65.2373 79.0597 64.9044 78.8678C64.577 78.6759 64.3205 78.4045 64.135 78.0536C63.9495 77.7027 63.8567 77.2914 63.8567 76.8199Z" fill="white"/>
<path d="M73.3632 76.6554C73.3632 76.798 73.355 76.9487 73.3386 77.1078H69.7535C69.7808 77.5519 69.9308 77.9 70.2037 78.1523C70.482 78.399 70.8176 78.5224 71.2105 78.5224C71.5324 78.5224 71.7998 78.4483 72.0126 78.3003C72.2309 78.1468 72.3837 77.9439 72.471 77.6917H73.2731C73.1531 78.1249 72.913 78.4785 72.5528 78.7527C72.1927 79.0213 71.7452 79.1557 71.2105 79.1557C70.7848 79.1557 70.4028 79.0597 70.0645 78.8678C69.7317 78.6759 69.4697 78.4045 69.2787 78.0536C69.0878 77.6972 68.9923 77.286 68.9923 76.8199C68.9923 76.3538 69.085 75.9454 69.2706 75.5944C69.4561 75.2435 69.7153 74.9749 70.0482 74.7884C70.3865 74.5965 70.7739 74.5006 71.2105 74.5006C71.6361 74.5006 72.0126 74.5938 72.34 74.7802C72.6674 74.9666 72.9184 75.2243 73.093 75.5533C73.2731 75.8768 73.3632 76.2442 73.3632 76.6554ZM72.5937 76.4991C72.5937 76.214 72.531 75.97 72.4055 75.7672C72.28 75.5588 72.1081 75.4025 71.8898 75.2984C71.677 75.1887 71.4396 75.1339 71.1777 75.1339C70.8012 75.1339 70.4792 75.2545 70.2119 75.4958C69.9499 75.737 69.7999 76.0715 69.7617 76.4991H72.5937Z" fill="white"/>
<path d="M76.098 79.1557C75.7542 79.1557 75.4459 79.0981 75.173 78.9829C74.9002 78.8623 74.6847 78.6978 74.5264 78.4895C74.3682 78.2756 74.2809 78.0316 74.2645 77.7575H75.0339C75.0557 77.9823 75.1594 78.166 75.3449 78.3085C75.5359 78.4511 75.7842 78.5224 76.0898 78.5224C76.3735 78.5224 76.5973 78.4593 76.761 78.3332C76.9247 78.2071 77.0065 78.0481 77.0065 77.8562C77.0065 77.6588 76.9192 77.5135 76.7446 77.4203C76.57 77.3216 76.2999 77.2256 75.9343 77.1324C75.6014 77.0447 75.3286 76.957 75.1157 76.8692C74.9084 76.776 74.7283 76.6417 74.5755 76.4662C74.4282 76.2853 74.3545 76.0495 74.3545 75.7589C74.3545 75.5287 74.4227 75.3176 74.5592 75.1257C74.6956 74.9337 74.8893 74.783 75.1403 74.6733C75.3913 74.5582 75.6778 74.5006 75.9997 74.5006C76.4963 74.5006 76.8974 74.6267 77.203 74.8789C77.5085 75.1311 77.6722 75.4766 77.6941 75.9152H76.9492C76.9329 75.6794 76.8374 75.4903 76.6627 75.3477C76.4936 75.2052 76.2644 75.1339 75.9752 75.1339C75.7078 75.1339 75.495 75.1914 75.3367 75.3066C75.1785 75.4217 75.0994 75.5725 75.0994 75.7589C75.0994 75.907 75.1458 76.0303 75.2385 76.129C75.3367 76.2223 75.4568 76.299 75.5987 76.3593C75.746 76.4142 75.9479 76.4772 76.2044 76.5485C76.5263 76.6362 76.7883 76.7239 76.9902 76.8117C77.1921 76.8939 77.3639 77.02 77.5058 77.19C77.6532 77.36 77.7295 77.582 77.735 77.8562C77.735 78.1029 77.6668 78.325 77.5304 78.5224C77.394 78.7198 77.2002 78.876 76.9492 78.9912C76.7037 79.1008 76.4199 79.1557 76.098 79.1557Z" fill="white"/>
<path d="M31.0294 55.6735C30.2444 55.6735 29.5638 55.384 28.9877 54.8051C28.4115 54.2262 28.1235 53.5423 28.1235 52.7536V20.6342C28.1235 19.8454 28.4115 19.1616 28.9877 18.5827C29.5638 18.0037 30.2444 17.7143 31.0294 17.7143H54.6002C55.3852 17.7143 56.0658 18.0037 56.642 18.5827C57.2181 19.1616 57.5062 19.8454 57.5062 20.6342V52.7536C57.5062 53.5423 57.2181 54.2262 56.642 54.8051C56.0658 55.384 55.3852 55.6735 54.6002 55.6735H31.0294ZM31.0294 54.0513H54.6002C54.9231 54.0513 55.2191 53.9161 55.4882 53.6458C55.7572 53.3754 55.8917 53.078 55.8917 52.7536V20.6342C55.8917 20.3098 55.7572 20.0124 55.4882 19.742C55.2191 19.4716 54.9231 19.3365 54.6002 19.3365H31.0294C30.7065 19.3365 30.4106 19.4716 30.1415 19.742C29.8724 20.0124 29.7379 20.3098 29.7379 20.6342V52.7536C29.7379 53.078 29.8724 53.3754 30.1415 53.6458C30.4106 53.9161 30.7065 54.0513 31.0294 54.0513ZM42.8245 49.8458C45.2307 49.8458 47.2849 48.9873 48.9873 47.2702C50.6897 45.5531 51.5409 43.4858 51.5409 41.0681C51.5409 38.6504 50.6864 36.5863 48.9776 34.8757C47.2687 33.1652 45.2112 32.3099 42.8051 32.3099C40.399 32.3099 38.3447 33.1684 36.6423 34.8855C34.94 36.6025 34.0888 38.6699 34.0888 41.0876C34.0888 43.5052 34.9432 45.5694 36.6521 47.28C38.3609 48.9905 40.4184 49.8458 42.8245 49.8458ZM42.8148 47.4855C41.9561 47.4855 41.129 47.3314 40.3333 47.0231C39.5377 46.7149 38.8499 46.2526 38.2702 45.6362L47.3393 36.5235C47.9608 37.1048 48.425 37.7941 48.7317 38.5914C49.0384 39.3886 49.1918 40.2174 49.1918 41.0778C49.1918 42.8577 48.5718 44.3707 47.3319 45.6166C46.0919 46.8625 44.5862 47.4855 42.8148 47.4855ZM34.0536 25.4846C34.5695 25.4846 35.003 25.2983 35.3541 24.9258C35.7052 24.5533 35.8808 24.1079 35.8808 23.5895C35.8808 23.0712 35.702 22.6356 35.3444 22.2828C34.9868 21.9299 34.5436 21.7535 34.015 21.7535C33.5126 21.7535 33.0791 21.9332 32.7145 22.2925C32.3499 22.6518 32.1676 23.0971 32.1676 23.6283C32.1676 24.1331 32.353 24.5687 32.7237 24.935C33.0944 25.3014 33.5377 25.4846 34.0536 25.4846ZM40.6808 25.4846C41.1967 25.4846 41.6302 25.2983 41.9813 24.9258C42.3325 24.5533 42.5081 24.1079 42.5081 23.5895C42.5081 23.0712 42.3293 22.6356 41.9716 22.2828C41.614 21.9299 41.1709 21.7535 40.6423 21.7535C40.1399 21.7535 39.7064 21.9332 39.3418 22.2925C38.9772 22.6518 38.7949 23.0971 38.7949 23.6283C38.7949 24.1331 38.9802 24.5687 39.351 24.935C39.7217 25.3014 40.165 25.4846 40.6808 25.4846Z" fill="white"/>
</svg>
