<svg width="111" height="25" viewBox="0 0 111 25" fill="none" xmlns="http://www.w3.org/2000/svg">
<path d="M53.4091 19V7.36364H54.8182V17.75H60.2273V19H53.4091Z" fill="#3E5E63"/>
<path d="M66.0927 19.1818C65.3048 19.1818 64.6136 18.9943 64.0189 18.6193C63.428 18.2443 62.9658 17.7197 62.6325 17.0455C62.303 16.3712 62.1382 15.5833 62.1382 14.6818C62.1382 13.7727 62.303 12.9792 62.6325 12.3011C62.9658 11.6231 63.428 11.0966 64.0189 10.7216C64.6136 10.3466 65.3048 10.1591 66.0927 10.1591C66.8806 10.1591 67.57 10.3466 68.1609 10.7216C68.7556 11.0966 69.2177 11.6231 69.5473 12.3011C69.8806 12.9792 70.0473 13.7727 70.0473 14.6818C70.0473 15.5833 69.8806 16.3712 69.5473 17.0455C69.2177 17.7197 68.7556 18.2443 68.1609 18.6193C67.57 18.9943 66.8806 19.1818 66.0927 19.1818ZM66.0927 17.9773C66.6912 17.9773 67.1836 17.8239 67.57 17.517C67.9564 17.2102 68.2423 16.8068 68.428 16.3068C68.6136 15.8068 68.7064 15.2652 68.7064 14.6818C68.7064 14.0985 68.6136 13.5549 68.428 13.0511C68.2423 12.5473 67.9564 12.1402 67.57 11.8295C67.1836 11.5189 66.6912 11.3636 66.0927 11.3636C65.4942 11.3636 65.0018 11.5189 64.6155 11.8295C64.2291 12.1402 63.9431 12.5473 63.7575 13.0511C63.5719 13.5549 63.4791 14.0985 63.4791 14.6818C63.4791 15.2652 63.5719 15.8068 63.7575 16.3068C63.9431 16.8068 64.2291 17.2102 64.6155 17.517C65.0018 17.8239 65.4942 17.9773 66.0927 17.9773Z" fill="#3E5E63"/>
<path d="M75.9369 22.4545C75.2891 22.4545 74.7323 22.3712 74.2664 22.2045C73.8005 22.0417 73.4123 21.8258 73.1016 21.5568C72.7948 21.2917 72.5505 21.0076 72.3687 20.7045L73.4369 19.9545C73.5581 20.1136 73.7115 20.2955 73.8971 20.5C74.0827 20.7083 74.3365 20.8883 74.6585 21.0398C74.9842 21.1951 75.4104 21.2727 75.9369 21.2727C76.6414 21.2727 77.2229 21.1023 77.6812 20.7614C78.1395 20.4205 78.3687 19.8864 78.3687 19.1591V17.3864H78.2551C78.1566 17.5455 78.0164 17.7424 77.8346 17.9773C77.6566 18.2083 77.399 18.4148 77.0619 18.5966C76.7285 18.7746 76.2778 18.8636 75.7096 18.8636C75.0051 18.8636 74.3725 18.697 73.8119 18.3636C73.2551 18.0303 72.8138 17.5455 72.488 16.9091C72.166 16.2727 72.0051 15.5 72.0051 14.5909C72.0051 13.697 72.1623 12.9186 72.4766 12.2557C72.791 11.589 73.2285 11.0739 73.7891 10.7102C74.3498 10.3428 74.9975 10.1591 75.7323 10.1591C76.3005 10.1591 76.7513 10.2538 77.0846 10.4432C77.4217 10.6288 77.6793 10.8409 77.8573 11.0795C78.0391 11.3144 78.1793 11.5076 78.2778 11.6591H78.4141V10.2727H79.7096V19.25C79.7096 20 79.5392 20.6098 79.1982 21.0795C78.8611 21.553 78.4066 21.8996 77.8346 22.1193C77.2664 22.3428 76.6338 22.4545 75.9369 22.4545ZM75.8914 17.6591C76.4293 17.6591 76.8838 17.536 77.2551 17.2898C77.6263 17.0436 77.9085 16.6894 78.1016 16.2273C78.2948 15.7652 78.3914 15.2121 78.3914 14.5682C78.3914 13.9394 78.2967 13.3845 78.1073 12.9034C77.9179 12.4223 77.6376 12.0455 77.2664 11.7727C76.8952 11.5 76.4369 11.3636 75.8914 11.3636C75.3232 11.3636 74.8498 11.5076 74.471 11.7955C74.096 12.0833 73.8138 12.4697 73.6244 12.9545C73.4388 13.4394 73.346 13.9773 73.346 14.5682C73.346 15.1742 73.4407 15.7102 73.6301 16.1761C73.8232 16.6383 74.1073 17.0019 74.4823 17.267C74.8611 17.5284 75.3308 17.6591 75.8914 17.6591Z" fill="#3E5E63"/>
<path d="M90.8496 19.1818C90.0617 19.1818 89.3704 18.9943 88.7757 18.6193C88.1848 18.2443 87.7227 17.7197 87.3894 17.0455C87.0598 16.3712 86.8951 15.5833 86.8951 14.6818C86.8951 13.7727 87.0598 12.9792 87.3894 12.3011C87.7227 11.6231 88.1848 11.0966 88.7757 10.7216C89.3704 10.3466 90.0617 10.1591 90.8496 10.1591C91.6375 10.1591 92.3269 10.3466 92.9178 10.7216C93.5125 11.0966 93.9746 11.6231 94.3041 12.3011C94.6375 12.9792 94.8041 13.7727 94.8041 14.6818C94.8041 15.5833 94.6375 16.3712 94.3041 17.0455C93.9746 17.7197 93.5125 18.2443 92.9178 18.6193C92.3269 18.9943 91.6375 19.1818 90.8496 19.1818ZM90.8496 17.9773C91.4481 17.9773 91.9405 17.8239 92.3269 17.517C92.7132 17.2102 92.9992 16.8068 93.1848 16.3068C93.3704 15.8068 93.4632 15.2652 93.4632 14.6818C93.4632 14.0985 93.3704 13.5549 93.1848 13.0511C92.9992 12.5473 92.7132 12.1402 92.3269 11.8295C91.9405 11.5189 91.4481 11.3636 90.8496 11.3636C90.2511 11.3636 89.7587 11.5189 89.3723 11.8295C88.986 12.1402 88.7 12.5473 88.5144 13.0511C88.3288 13.5549 88.236 14.0985 88.236 14.6818C88.236 15.2652 88.3288 15.8068 88.5144 16.3068C88.7 16.8068 88.986 17.2102 89.3723 17.517C89.7587 17.8239 90.2511 17.9773 90.8496 17.9773Z" fill="#3E5E63"/>
<path d="M102.671 15.4318V10.2727H104.012V19H102.671V17.5227H102.58C102.376 17.9659 102.057 18.3428 101.626 18.6534C101.194 18.9602 100.648 19.1136 99.9892 19.1136C99.4437 19.1136 98.9589 18.9943 98.5347 18.7557C98.1104 18.5133 97.7771 18.1496 97.5347 17.6648C97.2922 17.1761 97.171 16.5606 97.171 15.8182V10.2727H98.5119V15.7273C98.5119 16.3636 98.69 16.8712 99.046 17.25C99.4059 17.6288 99.8642 17.8182 100.421 17.8182C100.754 17.8182 101.093 17.733 101.438 17.5625C101.787 17.392 102.078 17.1307 102.313 16.7784C102.552 16.4261 102.671 15.9773 102.671 15.4318Z" fill="#3E5E63"/>
<path d="M110.583 10.2727V11.4091H106.061V10.2727H110.583ZM107.379 8.18182H108.72V16.5C108.72 16.8788 108.775 17.1629 108.884 17.3523C108.998 17.5379 109.142 17.6629 109.316 17.7273C109.494 17.7879 109.682 17.8182 109.879 17.8182C110.027 17.8182 110.148 17.8106 110.242 17.7955C110.337 17.7765 110.413 17.7614 110.47 17.75L110.742 18.9545C110.652 18.9886 110.525 19.0227 110.362 19.0568C110.199 19.0947 109.992 19.1136 109.742 19.1136C109.364 19.1136 108.992 19.0322 108.629 18.8693C108.269 18.7064 107.97 18.4583 107.731 18.125C107.496 17.7917 107.379 17.3712 107.379 16.8636V8.18182Z" fill="#3E5E63"/>
<path d="M17.8026 16.8807C17.6763 16.7629 17.6131 16.6258 17.6131 16.4693C17.6131 16.3127 17.6763 16.1774 17.8026 16.0633L20.7721 13.0656H8.24379C8.08259 13.0656 7.94801 13.011 7.84007 12.9017C7.73213 12.7924 7.67816 12.6562 7.67816 12.4931C7.67816 12.3299 7.73213 12.196 7.84007 12.0913C7.94801 11.9867 8.08259 11.9344 8.24379 11.9344H20.7551L17.7206 8.89989C17.6188 8.79808 17.5679 8.67538 17.5679 8.5318C17.5679 8.38825 17.6337 8.2514 17.7653 8.12125C17.878 8.0125 18.0142 7.95813 18.1739 7.95813C18.3336 7.95813 18.4672 8.02129 18.5747 8.14761L22.2393 11.7851C22.349 11.894 22.4331 12.0114 22.4915 12.1372C22.55 12.2631 22.5792 12.3932 22.5792 12.5275C22.5792 12.6619 22.55 12.7856 22.4915 12.8988C22.4331 13.0119 22.349 13.1237 22.2393 13.2342L18.5832 16.9174C18.4813 17.0004 18.3574 17.0419 18.2113 17.0419C18.0651 17.0419 17.9289 16.9881 17.8026 16.8807ZM2.03621 25C1.47107 25 0.990404 24.8019 0.594228 24.4058C0.198076 24.0096 0 23.5289 0 22.9638V2.03618C0 1.47105 0.198076 0.990405 0.594228 0.594229C0.990404 0.198077 1.47107 0 2.03621 0H11.0944C11.2556 0 11.3902 0.0546326 11.4982 0.163897C11.6061 0.273162 11.6601 0.409375 11.6601 0.572537C11.6601 0.735723 11.6061 0.869632 11.4982 0.974265C11.3902 1.0789 11.2556 1.13121 11.0944 1.13121H2.03621C1.80996 1.13121 1.60257 1.22548 1.41404 1.41401C1.22549 1.60256 1.13121 1.80995 1.13121 2.03618V22.9638C1.13121 23.19 1.22549 23.3974 1.41404 23.586C1.60257 23.7745 1.80996 23.8688 2.03621 23.8688H11.0944C11.2556 23.8688 11.3902 23.9234 11.4982 24.0327C11.6061 24.1419 11.6601 24.2782 11.6601 24.4413C11.6601 24.6045 11.6061 24.7384 11.4982 24.8431C11.3902 24.9477 11.2556 25 11.0944 25H2.03621Z" fill="#3E5E63"/>
</svg>
