<svg width="85" height="93" viewBox="0 0 85 93" fill="none" xmlns="http://www.w3.org/2000/svg">
<g id="Vector">
<path d="M0 7.59184C0 3.39898 3.38274 0 7.55556 0H77.4444C81.6173 0 85 3.39898 85 7.59184V85.4082C85 89.601 81.6173 93 77.4444 93H7.55555C3.38274 93 0 89.601 0 85.4082V7.59184Z" fill="#3E5E63"/>
<path d="M19.6394 72.125V77.8163H18.8946V73.5725L17.012 77.8163H16.4881L14.5973 73.5643V77.8163H13.8525V72.125H14.6546L16.75 76.8294L18.8454 72.125H19.6394Z" fill="white"/>
<path d="M20.788 75.5464C20.788 75.0858 20.8808 74.6828 21.0663 74.3374C21.2518 73.9865 21.5056 73.715 21.8275 73.5231C22.1549 73.3312 22.5178 73.2353 22.9162 73.2353C23.3091 73.2353 23.6501 73.3203 23.9393 73.4902C24.2285 73.6602 24.4441 73.8741 24.5859 74.1318V73.3093H25.339V77.8163H24.5859V76.9774C24.4386 77.2406 24.2176 77.4599 23.9229 77.6354C23.6337 77.8054 23.2954 77.8903 22.908 77.8903C22.5096 77.8903 22.1495 77.7917 21.8275 77.5943C21.5056 77.3969 21.2518 77.12 21.0663 76.7636C20.8808 76.4072 20.788 76.0015 20.788 75.5464ZM24.5859 75.5546C24.5859 75.2146 24.5177 74.9186 24.3813 74.6663C24.2449 74.4141 24.0594 74.2222 23.8247 74.0906C23.5955 73.9536 23.3418 73.885 23.0635 73.885C22.7852 73.885 22.5315 73.9508 22.3023 74.0824C22.0731 74.214 21.8903 74.4059 21.7539 74.6581C21.6175 74.9103 21.5492 75.2064 21.5492 75.5464C21.5492 75.8918 21.6175 76.1934 21.7539 76.4511C21.8903 76.7033 22.0731 76.8979 22.3023 77.035C22.5315 77.1666 22.7852 77.2324 23.0635 77.2324C23.3418 77.2324 23.5955 77.1666 23.8247 77.035C24.0594 76.8979 24.2449 76.7033 24.3813 76.4511C24.5177 76.1934 24.5859 75.8945 24.5859 75.5546Z" fill="white"/>
<path d="M27.1461 72.5773C27.0042 72.5773 26.8842 72.528 26.786 72.4293C26.6877 72.3306 26.6386 72.21 26.6386 72.0674C26.6386 71.9249 26.6877 71.8042 26.786 71.7055C26.8842 71.6068 27.0042 71.5575 27.1461 71.5575C27.2825 71.5575 27.3971 71.6068 27.4899 71.7055C27.5881 71.8042 27.6372 71.9249 27.6372 72.0674C27.6372 72.21 27.5881 72.3306 27.4899 72.4293C27.3971 72.528 27.2825 72.5773 27.1461 72.5773ZM27.5063 73.3093V77.8163H26.7614V73.3093H27.5063Z" fill="white"/>
<path d="M28.6611 75.5464C28.6611 75.0858 28.7539 74.6828 28.9394 74.3374C29.125 73.9865 29.3787 73.715 29.7007 73.5231C30.0281 73.3312 30.3937 73.2353 30.7975 73.2353C31.1467 73.2353 31.4714 73.3175 31.7715 73.482C32.0716 73.641 32.3008 73.8521 32.4591 74.1153V71.7302H33.2121V77.8163H32.4591V76.9692C32.3117 77.2379 32.0935 77.4599 31.8043 77.6354C31.515 77.8054 31.1767 77.8903 30.7893 77.8903C30.3909 77.8903 30.0281 77.7917 29.7007 77.5943C29.3787 77.3969 29.125 77.12 28.9394 76.7636C28.7539 76.4072 28.6611 76.0015 28.6611 75.5464ZM32.4591 75.5546C32.4591 75.2146 32.3909 74.9186 32.2544 74.6663C32.118 74.4141 31.9325 74.2222 31.6978 74.0906C31.4687 73.9536 31.2149 73.885 30.9366 73.885C30.6583 73.885 30.4046 73.9508 30.1754 74.0824C29.9462 74.214 29.7634 74.4059 29.627 74.6581C29.4906 74.9103 29.4224 75.2064 29.4224 75.5464C29.4224 75.8918 29.4906 76.1934 29.627 76.4511C29.7634 76.7033 29.9462 76.8979 30.1754 77.035C30.4046 77.1666 30.6583 77.2324 30.9366 77.2324C31.2149 77.2324 31.4687 77.1666 31.6978 77.035C31.9325 76.8979 32.118 76.7033 32.2544 76.4511C32.3909 76.1934 32.4591 75.8945 32.4591 75.5546Z" fill="white"/>
<path d="M38.7894 77.8739C38.4128 77.8739 38.0745 77.8081 37.7744 77.6765C37.4797 77.5394 37.2478 77.353 37.0786 77.1172C36.9095 76.876 36.8222 76.5991 36.8167 76.2866H37.6107C37.638 76.5552 37.7471 76.7828 37.9381 76.9692C38.1345 77.1501 38.4183 77.2406 38.7894 77.2406C39.144 77.2406 39.4223 77.1529 39.6242 76.9774C39.8316 76.7965 39.9353 76.5662 39.9353 76.2866C39.9353 76.0673 39.8753 75.8891 39.7552 75.752C39.6352 75.6149 39.4851 75.5107 39.305 75.4394C39.1249 75.3682 38.8821 75.2914 38.5765 75.2092C38.2 75.1105 37.8972 75.0118 37.668 74.9131C37.4443 74.8144 37.2505 74.6609 37.0868 74.4525C36.9286 74.2387 36.8495 73.9536 36.8495 73.5972C36.8495 73.2846 36.9286 73.0077 37.0868 72.7665C37.2451 72.5252 37.4661 72.3388 37.7498 72.2072C38.039 72.0756 38.3692 72.0098 38.7402 72.0098C39.275 72.0098 39.7115 72.1442 40.0499 72.4128C40.3936 72.6815 40.5874 73.0379 40.631 73.482H39.8125C39.7852 73.2627 39.6706 73.0708 39.4687 72.9063C39.2668 72.7363 38.9994 72.6513 38.6666 72.6513C38.3555 72.6513 38.1018 72.7336 37.9054 72.8981C37.7089 73.0571 37.6107 73.2819 37.6107 73.5725C37.6107 73.7808 37.668 73.9508 37.7826 74.0824C37.9026 74.214 38.0472 74.3154 38.2164 74.3867C38.391 74.4525 38.6338 74.5293 38.9449 74.617C39.3214 74.7212 39.6242 74.8254 39.8534 74.9295C40.0826 75.0282 40.2791 75.1845 40.4428 75.3983C40.6065 75.6067 40.6883 75.8918 40.6883 76.2537C40.6883 76.5333 40.6146 76.7965 40.4673 77.0432C40.32 77.29 40.1017 77.4901 39.8125 77.6436C39.5233 77.7971 39.1822 77.8739 38.7894 77.8739Z" fill="white"/>
<path d="M46.0407 75.3901C46.0407 75.5327 46.0325 75.6834 46.0162 75.8424H42.4311C42.4583 76.2866 42.6084 76.6347 42.8812 76.887C43.1595 77.1337 43.4951 77.2571 43.888 77.2571C44.21 77.2571 44.4774 77.183 44.6902 77.035C44.9084 76.8815 45.0612 76.6786 45.1485 76.4264H45.9507C45.8306 76.8595 45.5905 77.2132 45.2304 77.4873C44.8702 77.756 44.4228 77.8903 43.888 77.8903C43.4624 77.8903 43.0804 77.7944 42.7421 77.6025C42.4092 77.4106 42.1473 77.1392 41.9563 76.7883C41.7653 76.4319 41.6698 76.0206 41.6698 75.5546C41.6698 75.0885 41.7626 74.6801 41.9481 74.3291C42.1337 73.9782 42.3929 73.7096 42.7257 73.5231C43.064 73.3312 43.4515 73.2353 43.888 73.2353C44.3136 73.2353 44.6902 73.3285 45.0176 73.5149C45.345 73.7013 45.596 73.959 45.7706 74.288C45.9507 74.6115 46.0407 74.9789 46.0407 75.3901ZM45.2713 75.2338C45.2713 74.9487 45.2086 74.7047 45.0831 74.5019C44.9575 74.2935 44.7857 74.1372 44.5674 74.0331C44.3546 73.9234 44.1172 73.8686 43.8553 73.8686C43.4788 73.8686 43.1568 73.9892 42.8894 74.2304C42.6275 74.4717 42.4774 74.8062 42.4392 75.2338H45.2713Z" fill="white"/>
<path d="M47.9325 74.0413C48.0634 73.7836 48.249 73.5835 48.4891 73.4409C48.7346 73.2983 49.032 73.2271 49.3812 73.2271V74.0002H49.1848C48.3499 74.0002 47.9325 74.4553 47.9325 75.3654V77.8163H47.1876V73.3093H47.9325V74.0413Z" fill="white"/>
<path d="M52.0745 77.1255L53.466 73.3093H54.26L52.5002 77.8163H51.6325L49.8727 73.3093H50.6749L52.0745 77.1255Z" fill="white"/>
<path d="M55.5414 72.5773C55.3995 72.5773 55.2794 72.528 55.1812 72.4293C55.083 72.3306 55.0339 72.21 55.0339 72.0674C55.0339 71.9249 55.083 71.8042 55.1812 71.7055C55.2794 71.6068 55.3995 71.5575 55.5414 71.5575C55.6778 71.5575 55.7924 71.6068 55.8851 71.7055C55.9834 71.8042 56.0325 71.9249 56.0325 72.0674C56.0325 72.21 55.9834 72.3306 55.8851 72.4293C55.7924 72.528 55.6778 72.5773 55.5414 72.5773ZM55.9015 73.3093V77.8163H55.1566V73.3093H55.9015Z" fill="white"/>
<path d="M57.0564 75.5546C57.0564 75.0885 57.1491 74.6828 57.3347 74.3374C57.5202 73.9865 57.7767 73.715 58.1041 73.5231C58.4369 73.3312 58.8162 73.2353 59.2418 73.2353C59.793 73.2353 60.2459 73.3696 60.6006 73.6383C60.9607 73.9069 61.1981 74.2798 61.3127 74.7568H60.5105C60.4341 74.4827 60.2841 74.2661 60.0603 74.1071C59.8421 73.9481 59.5692 73.8686 59.2418 73.8686C58.8162 73.8686 58.4724 74.0166 58.2105 74.3127C57.9486 74.6033 57.8176 75.0173 57.8176 75.5546C57.8176 76.0974 57.9486 76.5169 58.2105 76.8129C58.4724 77.109 58.8162 77.2571 59.2418 77.2571C59.5692 77.2571 59.8421 77.1803 60.0603 77.0268C60.2786 76.8733 60.4287 76.6539 60.5105 76.3688H61.3127C61.1926 76.8294 60.9525 77.1995 60.5924 77.4791C60.2322 77.7533 59.782 77.8903 59.2418 77.8903C58.8162 77.8903 58.4369 77.7944 58.1041 77.6025C57.7767 77.4106 57.5202 77.1392 57.3347 76.7883C57.1491 76.4374 57.0564 76.0261 57.0564 75.5546Z" fill="white"/>
<path d="M66.5628 75.3901C66.5628 75.5327 66.5546 75.6834 66.5383 75.8424H62.9532C62.9805 76.2866 63.1305 76.6347 63.4034 76.887C63.6817 77.1337 64.0172 77.2571 64.4101 77.2571C64.7321 77.2571 64.9995 77.183 65.2123 77.035C65.4306 76.8815 65.5833 76.6786 65.6706 76.4264H66.4728C66.3527 76.8595 66.1126 77.2132 65.7525 77.4873C65.3924 77.756 64.9449 77.8903 64.4101 77.8903C63.9845 77.8903 63.6025 77.7944 63.2642 77.6025C62.9313 77.4106 62.6694 77.1392 62.4784 76.7883C62.2874 76.4319 62.1919 76.0206 62.1919 75.5546C62.1919 75.0885 62.2847 74.6801 62.4702 74.3291C62.6558 73.9782 62.915 73.7096 63.2478 73.5231C63.5862 73.3312 63.9736 73.2353 64.4101 73.2353C64.8358 73.2353 65.2123 73.3285 65.5397 73.5149C65.8671 73.7013 66.1181 73.959 66.2927 74.288C66.4728 74.6115 66.5628 74.9789 66.5628 75.3901ZM65.7934 75.2338C65.7934 74.9487 65.7307 74.7047 65.6052 74.5019C65.4797 74.2935 65.3078 74.1372 65.0895 74.0331C64.8767 73.9234 64.6393 73.8686 64.3774 73.8686C64.0009 73.8686 63.6789 73.9892 63.4115 74.2304C63.1496 74.4717 62.9995 74.8062 62.9614 75.2338H65.7934Z" fill="white"/>
<path d="M69.2976 77.8903C68.9539 77.8903 68.6456 77.8328 68.3727 77.7176C68.0999 77.597 67.8843 77.4325 67.7261 77.2242C67.5678 77.0103 67.4805 76.7663 67.4642 76.4922H68.2336C68.2554 76.717 68.3591 76.9007 68.5446 77.0432C68.7356 77.1858 68.9839 77.2571 69.2895 77.2571C69.5732 77.2571 69.7969 77.194 69.9606 77.0679C70.1244 76.9418 70.2062 76.7828 70.2062 76.5909C70.2062 76.3935 70.1189 76.2482 69.9443 76.155C69.7697 76.0563 69.4995 75.9603 69.1339 75.8671C68.8011 75.7794 68.5282 75.6917 68.3154 75.6039C68.1081 75.5107 67.928 75.3764 67.7752 75.2009C67.6279 75.02 67.5542 74.7842 67.5542 74.4936C67.5542 74.2633 67.6224 74.0523 67.7588 73.8603C67.8953 73.6684 68.089 73.5177 68.34 73.408C68.591 73.2929 68.8775 73.2353 69.1994 73.2353C69.696 73.2353 70.0971 73.3614 70.4026 73.6136C70.7082 73.8658 70.8719 74.2113 70.8938 74.6499H70.1489C70.1325 74.4141 70.037 74.225 69.8624 74.0824C69.6933 73.9398 69.4641 73.8686 69.1749 73.8686C68.9075 73.8686 68.6947 73.9261 68.5364 74.0413C68.3782 74.1564 68.2991 74.3072 68.2991 74.4936C68.2991 74.6417 68.3454 74.765 68.4382 74.8637C68.5364 74.9569 68.6565 75.0337 68.7984 75.094C68.9457 75.1488 69.1476 75.2119 69.4041 75.2832C69.726 75.3709 69.9879 75.4586 70.1898 75.5464C70.3917 75.6286 70.5636 75.7547 70.7055 75.9247C70.8528 76.0947 70.9292 76.3167 70.9347 76.5909C70.9347 76.8376 70.8665 77.0597 70.7301 77.2571C70.5936 77.4544 70.3999 77.6107 70.1489 77.7259C69.9034 77.8355 69.6196 77.8903 69.2976 77.8903Z" fill="white"/>
<path d="M50.9005 28.9325C53.7693 28.9325 56.0949 26.5958 56.0949 23.7132C56.0949 20.8307 53.7693 18.4939 50.9005 18.4939C48.0318 18.4939 45.7062 20.8307 45.7062 23.7132C45.7062 26.5958 48.0318 28.9325 50.9005 28.9325Z" fill="white"/>
<path d="M67.0362 40.757L58.2707 38.8823C58.1269 37.7297 57.1584 36.8301 55.9697 36.8143L48.4236 36.7135L46.7817 33.9663C47.5734 32.5369 47.2881 30.6983 46.0077 29.5865L41.4899 25.6639C39.9431 24.321 37.5813 24.5862 36.3689 26.2429L26.0767 40.3045C25.1652 41.5994 25.6113 43.3987 26.8475 44.6055C27.1835 44.9336 31.8113 49.1668 31.8113 49.1668L20.4731 49.0881C18.9146 49.0751 17.6406 50.339 17.6296 51.906C17.6189 53.4732 18.8744 54.7523 20.4343 54.7631L39.2502 54.8937C39.2568 54.8938 39.2633 54.8938 39.2699 54.8938C40.4367 54.8937 41.4843 54.1723 41.9048 53.0771C42.3276 51.9756 42.0273 50.7264 41.1513 49.94L36.6316 45.8831L37.1559 45.2733L36.531 44.7877C35.3742 43.889 34.9791 42.3651 35.4462 41.0528L38.9237 31.3196L37.8846 41.309C37.7999 42.1238 38.1407 42.9245 38.7857 43.4255L45.7934 48.8701C46.3184 49.2779 46.9893 49.4483 47.6596 49.3241C50.0573 51.1561 49.342 50.6095 51.4978 52.2567V53.7062C51.4978 54.3266 51.9983 54.8295 52.6157 54.8295H61.8544C62.0442 54.8295 62.2074 54.6944 62.2437 54.5073C62.28 54.3202 62.1793 54.1333 62.0033 54.0619L53.1704 50.4672C53.1575 50.4563 53.1454 50.4449 53.132 50.4346C51.0822 48.8684 52.3167 49.8116 49.4928 47.6541C49.7519 46.75 49.4581 45.7391 48.6723 45.1286L42.7021 40.49L43.6048 31.8113C43.7248 32.6902 44.4611 38.0795 44.5624 38.8212L47.9287 41.4367L55.907 41.5432C55.9178 41.5434 55.9284 41.5434 55.939 41.5434C56.4132 41.5434 56.855 41.4012 57.2252 41.1577L60.7465 41.9108L60.024 43.7847C59.9711 43.922 59.9808 44.0758 60.0504 44.2053C60.1201 44.3348 60.2428 44.4272 60.3863 44.4579L66.0183 45.6624C66.1617 45.693 66.3112 45.659 66.4275 45.5692C66.5438 45.4794 66.6149 45.3429 66.6221 45.1958L66.7225 43.1715C66.743 43.1726 66.7638 43.1747 66.7841 43.1747C67.3461 43.1747 67.8509 42.7811 67.9726 42.2068C68.1126 41.5466 67.6933 40.8975 67.0362 40.757Z" fill="white"/>
</g>
</svg>
