<svg width="109" height="25" viewBox="0 0 109 25" fill="none" xmlns="http://www.w3.org/2000/svg">
<path d="M61.0455 7.36364H62.4545V15.0682C62.4545 15.8636 62.267 16.5739 61.892 17.1989C61.5208 17.8201 60.9962 18.3106 60.3182 18.6705C59.6402 19.0265 58.8447 19.2045 57.9318 19.2045C57.0189 19.2045 56.2235 19.0265 55.5455 18.6705C54.8674 18.3106 54.3409 17.8201 53.9659 17.1989C53.5947 16.5739 53.4091 15.8636 53.4091 15.0682V7.36364H54.8182V14.9545C54.8182 15.5227 54.9432 16.0284 55.1932 16.4716C55.4432 16.911 55.7992 17.2576 56.2614 17.5114C56.7273 17.7614 57.2841 17.8864 57.9318 17.8864C58.5795 17.8864 59.1364 17.7614 59.6023 17.5114C60.0682 17.2576 60.4242 16.911 60.6705 16.4716C60.9205 16.0284 61.0455 15.5227 61.0455 14.9545V7.36364Z" fill="#20494F"/>
<path d="M65.4066 22.2727V10.2727H66.7021V11.6591H66.8612C66.9597 11.5076 67.096 11.3144 67.2703 11.0795C67.4483 10.8409 67.7021 10.6288 68.0316 10.4432C68.365 10.2538 68.8157 10.1591 69.3839 10.1591C70.1188 10.1591 70.7665 10.3428 71.3271 10.7102C71.8877 11.0777 72.3252 11.5985 72.6396 12.2727C72.954 12.947 73.1112 13.7424 73.1112 14.6591C73.1112 15.5833 72.954 16.3845 72.6396 17.0625C72.3252 17.7367 71.8896 18.2595 71.3328 18.6307C70.776 18.9981 70.1339 19.1818 69.4066 19.1818C68.846 19.1818 68.3972 19.089 68.0601 18.9034C67.7229 18.714 67.4635 18.5 67.2816 18.2614C67.0998 18.0189 66.9597 17.8182 66.8612 17.6591H66.7476V22.2727H65.4066ZM66.7248 14.6364C66.7248 15.2955 66.8214 15.8769 67.0146 16.3807C67.2078 16.8807 67.49 17.2727 67.8612 17.5568C68.2324 17.8371 68.687 17.9773 69.2248 17.9773C69.7854 17.9773 70.2532 17.8295 70.6282 17.5341C71.007 17.2348 71.2911 16.8333 71.4805 16.3295C71.6737 15.822 71.7703 15.2576 71.7703 14.6364C71.7703 14.0227 71.6756 13.4697 71.4862 12.9773C71.3006 12.4811 71.0184 12.089 70.6396 11.8011C70.2646 11.5095 69.793 11.3636 69.2248 11.3636C68.6794 11.3636 68.221 11.5019 67.8498 11.7784C67.4786 12.0511 67.1983 12.4337 67.0089 12.9261C66.8195 13.4148 66.7248 13.9848 66.7248 14.6364Z" fill="#20494F"/>
<path d="M78.7721 19.1818C78.0448 19.1818 77.4028 18.9981 76.846 18.6307C76.2891 18.2595 75.8535 17.7367 75.5391 17.0625C75.2248 16.3845 75.0676 15.5833 75.0676 14.6591C75.0676 13.7424 75.2248 12.947 75.5391 12.2727C75.8535 11.5985 76.291 11.0777 76.8516 10.7102C77.4123 10.3428 78.06 10.1591 78.7948 10.1591C79.363 10.1591 79.8119 10.2538 80.1414 10.4432C80.4748 10.6288 80.7285 10.8409 80.9028 11.0795C81.0808 11.3144 81.2191 11.5076 81.3176 11.6591H81.4312V7.36364H82.7721V19H81.4766V17.6591H81.3176C81.2191 17.8182 81.0789 18.0189 80.8971 18.2614C80.7153 18.5 80.4558 18.714 80.1187 18.9034C79.7816 19.089 79.3327 19.1818 78.7721 19.1818ZM78.9539 17.9773C79.4918 17.9773 79.9463 17.8371 80.3176 17.5568C80.6888 17.2727 80.971 16.8807 81.1641 16.3807C81.3573 15.8769 81.4539 15.2955 81.4539 14.6364C81.4539 13.9848 81.3592 13.4148 81.1698 12.9261C80.9804 12.4337 80.7001 12.0511 80.3289 11.7784C79.9577 11.5019 79.4994 11.3636 78.9539 11.3636C78.3857 11.3636 77.9123 11.5095 77.5335 11.8011C77.1585 12.089 76.8763 12.4811 76.6869 12.9773C76.5013 13.4697 76.4085 14.0227 76.4085 14.6364C76.4085 15.2576 76.5032 15.822 76.6926 16.3295C76.8857 16.8333 77.1698 17.2348 77.5448 17.5341C77.9236 17.8295 78.3933 17.9773 78.9539 17.9773Z" fill="#20494F"/>
<path d="M88.3023 19.2045C87.7493 19.2045 87.2474 19.1004 86.7966 18.892C86.3459 18.6799 85.9879 18.375 85.7228 17.9773C85.4576 17.5758 85.3251 17.0909 85.3251 16.5227C85.3251 16.0227 85.4235 15.6174 85.6205 15.3068C85.8175 14.9924 86.0807 14.7462 86.4103 14.5682C86.7398 14.3902 87.1035 14.2576 87.5012 14.1705C87.9027 14.0795 88.3061 14.0076 88.7114 13.9545C89.2417 13.8864 89.6716 13.8352 90.0012 13.8011C90.3345 13.7633 90.5769 13.7008 90.7285 13.6136C90.8838 13.5265 90.9614 13.375 90.9614 13.1591V13.1136C90.9614 12.553 90.808 12.1174 90.5012 11.8068C90.1982 11.4962 89.7379 11.3409 89.1205 11.3409C88.4804 11.3409 87.9785 11.4811 87.6148 11.7614C87.2512 12.0417 86.9955 12.3409 86.8478 12.6591L85.5751 12.2045C85.8023 11.6742 86.1054 11.2614 86.4841 10.9659C86.8667 10.6667 87.2834 10.4583 87.7341 10.3409C88.1887 10.2197 88.6357 10.1591 89.0751 10.1591C89.3554 10.1591 89.6773 10.1932 90.041 10.2614C90.4084 10.3258 90.7626 10.4602 91.1035 10.6648C91.4482 10.8693 91.7341 11.178 91.9614 11.5909C92.1887 12.0038 92.3023 12.5568 92.3023 13.25V19H90.9614V17.8182H90.8932C90.8023 18.0076 90.6508 18.2102 90.4387 18.4261C90.2266 18.642 89.9444 18.8258 89.5921 18.9773C89.2398 19.1288 88.8099 19.2045 88.3023 19.2045ZM88.5069 18C89.0372 18 89.4841 17.8958 89.8478 17.6875C90.2152 17.4792 90.4917 17.2102 90.6773 16.8807C90.8667 16.5511 90.9614 16.2045 90.9614 15.8409V14.6136C90.9046 14.6818 90.7796 14.7443 90.5864 14.8011C90.397 14.8542 90.1773 14.9015 89.9273 14.9432C89.6811 14.9811 89.4406 15.0152 89.2057 15.0455C88.9747 15.072 88.7872 15.0947 88.6432 15.1136C88.2947 15.1591 87.969 15.233 87.666 15.3352C87.3667 15.4337 87.1243 15.5833 86.9387 15.7841C86.7569 15.9811 86.666 16.25 86.666 16.5909C86.666 17.0568 86.8383 17.4091 87.183 17.6477C87.5315 17.8826 87.9728 18 88.5069 18Z" fill="#20494F"/>
<path d="M98.8652 10.2727V11.4091H94.3425V10.2727H98.8652ZM95.6607 8.18182H97.0016V16.5C97.0016 16.8788 97.0565 17.1629 97.1664 17.3523C97.28 17.5379 97.4239 17.6629 97.5982 17.7273C97.7762 17.7879 97.9637 17.8182 98.1607 17.8182C98.3084 17.8182 98.4296 17.8106 98.5243 17.7955C98.619 17.7765 98.6948 17.7614 98.7516 17.75L99.0243 18.9545C98.9334 18.9886 98.8065 19.0227 98.6436 19.0568C98.4808 19.0947 98.2743 19.1136 98.0243 19.1136C97.6455 19.1136 97.2743 19.0322 96.9107 18.8693C96.5508 18.7064 96.2516 18.4583 96.013 18.125C95.7781 17.7917 95.6607 17.3712 95.6607 16.8636V8.18182Z" fill="#20494F"/>
<path d="M104.768 19.1818C103.927 19.1818 103.201 18.9962 102.591 18.625C101.985 18.25 101.518 17.7273 101.188 17.0568C100.862 16.3826 100.699 15.5985 100.699 14.7045C100.699 13.8106 100.862 13.0227 101.188 12.3409C101.518 11.6553 101.976 11.1212 102.563 10.7386C103.154 10.3523 103.843 10.1591 104.631 10.1591C105.086 10.1591 105.535 10.2348 105.978 10.3864C106.421 10.5379 106.824 10.7841 107.188 11.125C107.552 11.4621 107.841 11.9091 108.057 12.4659C108.273 13.0227 108.381 13.7083 108.381 14.5227V15.0909H101.654V13.9318H107.018C107.018 13.4394 106.919 13 106.722 12.6136C106.529 12.2273 106.252 11.9223 105.893 11.6989C105.537 11.4754 105.116 11.3636 104.631 11.3636C104.097 11.3636 103.635 11.4962 103.245 11.7614C102.859 12.0227 102.561 12.3636 102.353 12.7841C102.145 13.2045 102.04 13.6553 102.04 14.1364V14.9091C102.04 15.5682 102.154 16.1269 102.381 16.5852C102.612 17.0398 102.932 17.3864 103.341 17.625C103.751 17.8598 104.226 17.9773 104.768 17.9773C105.12 17.9773 105.438 17.928 105.722 17.8295C106.01 17.7273 106.258 17.5758 106.466 17.375C106.675 17.1705 106.836 16.9167 106.949 16.6136L108.245 16.9773C108.109 17.4167 107.879 17.803 107.557 18.1364C107.235 18.4659 106.838 18.7235 106.364 18.9091C105.891 19.0909 105.359 19.1818 104.768 19.1818Z" fill="#20494F"/>
<path d="M1.73075 25C1.2504 25 0.841844 24.8316 0.505094 24.4949C0.168364 24.1582 0 23.7496 0 23.2693V1.73075C0 1.25039 0.168364 0.841845 0.505094 0.505095C0.841844 0.168365 1.2504 0 1.73075 0H13.2693C13.7496 0 14.1582 0.168365 14.4949 0.505095C14.8316 0.841845 15 1.25039 15 1.73075V23.2693C15 23.7496 14.8316 24.1581 14.4949 24.4949C14.1582 24.8316 13.7496 25 13.2693 25H1.73075ZM0.961532 22.3077V23.2693C0.961532 23.4615 1.04166 23.6378 1.20191 23.7981C1.36218 23.9583 1.53846 24.0385 1.73075 24.0385H13.2693C13.4615 24.0385 13.6378 23.9583 13.7981 23.7981C13.9583 23.6378 14.0385 23.4615 14.0385 23.2693V22.3077H0.961532ZM0.961532 21.3462H14.0385V3.65384H0.961532V21.3462ZM7.5 16.6731L3.4495 12.5986L4.14422 11.9038L7.01922 14.8029V8.54806H7.98078V14.8029L10.8558 11.9038L11.5745 12.5986L7.5 16.6731ZM0.961532 2.69231H14.0385V1.73075C14.0385 1.53846 13.9583 1.36218 13.7981 1.20191C13.6378 1.04166 13.4615 0.961531 13.2693 0.961531H1.73075C1.53846 0.961531 1.36218 1.04166 1.20191 1.20191C1.04166 1.36218 0.961532 1.53846 0.961532 1.73075V2.69231Z" fill="#20494F"/>
</svg>
